{
  "accessors": [
    {
      "bufferView": 0,
      "componentType": 5126,
      "count": 24,
      "max": [
        10.0,
        10.0,
        0.22060218453407288
      ],
      "min": [
        -10.0,
        -10.0,
        0.0
      ],
      "type": "VEC3"
    },
    {
      "bufferView": 0,
      "byteOffset": 12,
      "componentType": 5126,
      "count": 24,
      "type": "VEC3"
    },
    {
      "bufferView": 0,
      "byteOffset": 24,
      "componentType": 5126,
      "count": 24,
      "type": "VEC2"
    },
    {
      "bufferView": 1,
      "componentType": 5125,
      "count": 36,
      "type": "SCALAR"
    },
    {
      "bufferView": 2,
      "componentType": 5126,
      "count": 662,
      "max": [
        8.677078247070313,
        8.033842086791992,
        3.4000000953674316
      ],
      "min": [
        -5.336214542388916,
        -8.3141450881958,
        0.0
      ],
      "type": "VEC3"
    },
    {
      "bufferView": 2,
      "byteOffset": 12,
      "componentType": 5126,
      "count": 662,
      "type": "VEC3"
    },
    {
      "bufferView": 2,
      "byteOffset": 24,
      "componentType": 5126,
      "count": 662,
      "type": "VEC2"
    },
    {
      "bufferView": 3,
      "componentType": 5125,
      "count": 1764,
      "type": "SCALAR"
    },
    {
      "bufferView": 4,
      "componentType": 5126,
      "count": 435,
      "max": [
        0.48862043023109436,
        0.9846032857894897,
        0.288413405418396
      ],
      "min": [
        -0.488620400428772,
        -0.9849475622177124,
        0.0014983415603637695
      ],
      "type": "VEC3"
    },
    {
      "bufferView": 4,
      "byteOffset": 12,
      "componentType": 5126,
      "count": 435,
      "type": "VEC3"
    },
    {
      "bufferView": 5,
      "componentType": 5125,
      "count": 708,
      "type": "SCALAR"
    },
    {
      "bufferView": 6,
      "componentType": 5126,
      "count": 435,
      "max": [
        0.48862043023109436,
        0.9846032857894897,
        0.288413405418396
      ],
      "min": [
        -0.488620400428772,
        -0.9849475622177124,
        0.0014983415603637695
      ],
      "type": "VEC3"
    },
    {
      "bufferView": 6,
      "byteOffset": 12,
      "componentType": 5126,
      "count": 435,
      "type": "VEC3"
    },
    {
      "bufferView": 7,
      "componentType": 5125,
      "count": 708,
      "type": "SCALAR"
    },
    {
      "bufferView": 8,
      "componentType": 5126,
      "count": 435,
      "max": [
        0.48862043023109436,
        0.9846032857894897,
        0.288413405418396
      ],
      "min": [
        -0.488620400428772,
        -0.9849475622177124,
        0.0014983415603637695
      ],
      "type": "VEC3"
    },
    {
      "bufferView": 8,
      "byteOffset": 12,
      "componentType": 5126,
      "count": 435,
      "type": "VEC3"
    },
    {
      "bufferView": 9,
      "componentType": 5125,
      "count": 708,
      "type": "SCALAR"
    },
    {
      "bufferView": 10,
      "componentType": 5126,
      "count": 72,
      "max": [
        0.060506440699100494,
        0.6546269059181213,
        3.4000000953674316
      ],
      "min": [
        -0.6621448993682861,
        -0.6499999761581421,
        0.0
      ],
      "type": "VEC3"
    },
    {
      "bufferView": 10,
      "byteOffset": 12,
      "componentType": 5126,
      "count": 72,
      "type": "VEC3"
    },
    {
      "bufferView": 10,
      "byteOffset": 24,
      "componentType": 5126,
      "count": 72,
      "type": "VEC2"
    },
    {
      "bufferView": 11,
      "componentType": 5125,
      "count": 108,
      "type": "SCALAR"
    },
    {
      "bufferView": 10,
      "byteOffset": 2304,
      "componentType": 5126,
      "count": 100,
      "max": [
        0.10000000149011612,
        1.149999976158142,
        3.4000000953674316
      ],
      "min": [
        -0.10000000149011612,
        -1.149999976158142,
        0.0
      ],
      "type": "VEC3"
    },
    {
      "bufferView": 10,
      "byteOffset": 2316,
      "componentType": 5126,
      "count": 100,
      "type": "VEC3"
    },
    {
      "bufferView": 10,
      "byteOffset": 2328,
      "componentType": 5126,
      "count": 100,
      "type": "VEC2"
    },
    {
      "bufferView": 11,
      "byteOffset": 432,
      "componentType": 5125,
      "count": 192,
      "type": "SCALAR"
    },
    {
      "bufferView": 12,
      "componentType": 5126,
      "count": 132,
      "max": [
        7.001395225524902,
        8.220067977905273,
        0.5667760372161865
      ],
      "min": [
        -7.11876106262207,
        -8.220067977905273,
        0.0
      ],
      "type": "VEC3"
    },
    {
      "bufferView": 12,
      "byteOffset": 12,
      "componentType": 5126,
      "count": 132,
      "type": "VEC3"
    },
    {
      "bufferView": 12,
      "byteOffset": 24,
      "componentType": 5126,
      "count": 132,
      "type": "VEC2"
    },
    {
      "bufferView": 13,
      "componentType": 5125,
      "count": 324,
      "type": "SCALAR"
    }
  ],
  "asset": {
    "version": "2.0"
  },
  "bufferViews": [
    {
      "buffer": 0,
      "byteLength": 768,
      "byteStride": 32,
      "target": 34962
    },
    {
      "buffer": 0,
      "byteLength": 144,
      "byteOffset": 768,
      "target": 34963
    },
    {
      "buffer": 0,
      "byteLength": 21184,
      "byteOffset": 912,
      "byteStride": 32,
      "target": 34962
    },
    {
      "buffer": 0,
      "byteLength": 7056,
      "byteOffset": 22096,
      "target": 34963
    },
    {
      "buffer": 0,
      "byteLength": 13920,
      "byteOffset": 29152,
      "byteStride": 32,
      "target": 34962
    },
    {
      "buffer": 0,
      "byteLength": 2832,
      "byteOffset": 43072,
      "target": 34963
    },
    {
      "buffer": 0,
      "byteLength": 13920,
      "byteOffset": 45904,
      "byteStride": 32,
      "target": 34962
    },
    {
      "buffer": 0,
      "byteLength": 2832,
      "byteOffset": 59824,
      "target": 34963
    },
    {
      "buffer": 0,
      "byteLength": 13920,
      "byteOffset": 62656,
      "byteStride": 32,
      "target": 34962
    },
    {
      "buffer": 0,
      "byteLength": 2832,
      "byteOffset": 76576,
      "target": 34963
    },
    {
      "buffer": 0,
      "byteLength": 5504,
      "byteOffset": 79408,
      "byteStride": 32,
      "target": 34962
    },
    {
      "buffer": 0,
      "byteLength": 1200,
      "byteOffset": 84912,
      "target": 34963
    },
    {
      "buffer": 0,
      "byteLength": 4224,
      "byteOffset": 86112,
      "byteStride": 32,
      "target": 34962
    },
    {
      "buffer": 0,
      "byteLength": 1296,
      "byteOffset": 90336,
      "target": 34963
    }
  ],
  "buffers": [
    {
      "byteLength": 91632,
      "uri": "floor3d.bin"
    }
  ],
  "extensionsUsed": [
    "KHR_texture_transform"
  ],
  "images": [
    {
      "uri": "Material__27basecolortexture.jpeg"
    },
    {
      "uri": "Material__51basecolortexture.jpeg"
    },
    {
      "uri": "Material__25basecolortexture.jpeg"
    },
    {
      "uri": "Material__26basecolortexture.jpeg"
    },
    {
      "uri": "Material__76basecolortexture.jpeg"
    }
  ],
  "materials": [
    {
      "name": "Material__27",
      "pbrMetallicRoughness": {
        "baseColorFactor": [
          0.5,
          0.5,
          0.5,
          1.0
        ],
        "baseColorTexture": {
          "index": 0
        },
        "metallicFactor": 0.0
      }
    },
    {
      "name": "Material__51",
      "pbrMetallicRoughness": {
        "baseColorFactor": [
          0.5,
          0.5,
          0.5,
          1.0
        ],
        "baseColorTexture": {
          "extensions": {
            "KHR_texture_transform": {
              "scale": [
                0.0,
                0.0
              ]
            }
          },
          "index": 1
        },
        "metallicFactor": 0.0
      }
    },
    {
      "name": "Material__78",
      "pbrMetallicRoughness": {
        "baseColorFactor": [
          0.6064170002937317,
          0.5835262537002563,
          0.5285881757736206,
          1.0
        ],
        "metallicFactor": 0.20000000298023224,
        "roughnessFactor": 0.5
      }
    },
    {
      "name": "Material__25",
      "pbrMetallicRoughness": {
        "baseColorFactor": [
          0.5,
          0.5,
          0.5,
          1.0
        ],
        "baseColorTexture": {
          "index": 2
        },
        "metallicFactor": 0.0,
        "roughnessFactor": 0.5
      }
    },
    {
      "name": "Material__26",
      "pbrMetallicRoughness": {
        "baseColorFactor": [
          0.5,
          0.5,
          0.5,
          1.0
        ],
        "baseColorTexture": {
          "index": 3
        },
        "metallicFactor": 0.0
      }
    },
    {
      "name": "Material__76",
      "pbrMetallicRoughness": {
        "baseColorFactor": [
          0.5775399804115295,
          0.5775399804115295,
          0.5775399804115295,
          1.0
        ],
        "baseColorTexture": {
          "extensions": {
            "KHR_texture_transform": {
              "scale": [
                -1.1009999513626099,
                2.200000047683716
              ]
            }
          },
          "index": 4
        },
        "metallicFactor": 0.0,
        "roughnessFactor": 0.6304810047149658
      }
    }
  ],
  "meshes": [
    {
      "name": "Floor",
      "primitives": [
        {
          "attributes": {
            "NORMAL": 1,
            "POSITION": 0,
            "TEXCOORD_0": 2
          },
          "indices": 3,
          "material": 0,
          "mode": 4
        }
      ]
    },
    {
      "name": "Building",
      "primitives": [
        {
          "attributes": {
            "NORMAL": 5,
            "POSITION": 4,
            "TEXCOORD_0": 6
          },
          "indices": 7,
          "material": 1,
          "mode": 4
        }
      ]
    },
    {
      "name": "zz",
      "primitives": [
        {
          "attributes": {
            "NORMAL": 9,
            "POSITION": 8
          },
          "indices": 10,
          "material": 2,
          "mode": 4
        }
      ]
    },
    {
      "name": "zz001",
      "primitives": [
        {
          "attributes": {
            "NORMAL": 12,
            "POSITION": 11
          },
          "indices": 13,
          "material": 2,
          "mode": 4
        }
      ]
    },
    {
      "name": "zz002",
      "primitives": [
        {
          "attributes": {
            "NORMAL": 15,
            "POSITION": 14
          },
          "indices": 16,
          "material": 2,
          "mode": 4
        }
      ]
    },
    {
      "name": "Box030",
      "primitives": [
        {
          "attributes": {
            "NORMAL": 18,
            "POSITION": 17,
            "TEXCOORD_0": 19
          },
          "indices": 20,
          "material": 3,
          "mode": 4
        },
        {
          "attributes": {
            "NORMAL": 22,
            "POSITION": 21,
            "TEXCOORD_0": 23
          },
          "indices": 24,
          "material": 4,
          "mode": 4
        }
      ]
    },
    {
      "name": "Cielling",
      "primitives": [
        {
          "attributes": {
            "NORMAL": 26,
            "POSITION": 25,
            "TEXCOORD_0": 27
          },
          "indices": 28,
          "material": 5,
          "mode": 4
        }
      ]
    }
  ],
  "nodes": [
    {
      "mesh": 0,
      "name": "Floor"
    },
    {
      "children": [
        0
      ],
      "matrix": [
        1.0,
        0.0,
        0.0,
        0.0,
        0.0,
        0.0,
        -1.0,
        0.0,
        0.0,
        1.0,
        0.0,
        0.0,
        -0.8597412109375,
        -0.22194290161132813,
        0.1379789113998413,
        1.0
      ]
    },
    {
      "mesh": 1,
      "name": "Building"
    },
    {
      "children": [
        2
      ],
      "matrix": [
        -1.0,
        0.0,
        1.5099580252808664e-07,
        0.0,
        1.5099580252808664e-07,
        0.0,
        1.0,
        0.0,
        0.0,
        1.0,
        0.0,
        0.0,
        0.0,
        0.0,
        0.0,
        1.0
      ]
    },
    {
      "mesh": 2,
      "name": "zz"
    },
    {
      "children": [
        4
      ],
      "matrix": [
        9.37797963729281e-08,
        0.0,
        -1.2421510219573975,
        0.0,
        -7.841966720434357e-08,
        1.038699984550476,
        -5.9205205909834864e-15,
        0.0,
        1.3031245470046997,
        9.838316827881499e-08,
        9.838316827881499e-08,
        0.0,
        1.5972448587417603,
        1.0075535774230957,
        -2.68562388420105,
        1.0
      ]
    },
    {
      "mesh": 3,
      "name": "zz001"
    },
    {
      "children": [
        6
      ],
      "matrix": [
        9.37797963729281e-08,
        0.0,
        -1.2421510219573975,
        0.0,
        -7.841966720434357e-08,
        1.038699984550476,
        -5.9205205909834864e-15,
        0.0,
        1.3031245470046997,
        9.838316827881499e-08,
        9.838316827881499e-08,
        0.0,
        1.5972448587417603,
        1.0075535774230957,
        2.1785690784454346,
        1.0
      ]
    },
    {
      "mesh": 4,
      "name": "zz002"
    },
    {
      "children": [
        8
      ],
      "matrix": [
        9.37797963729281e-08,
        0.0,
        -1.2421510219573975,
        0.0,
        -7.841966720434357e-08,
        1.038699984550476,
        -5.9205205909834864e-15,
        0.0,
        1.3031245470046997,
        9.838316827881499e-08,
        9.838316827881499e-08,
        0.0,
        1.5972448587417603,
        1.0075535774230957,
        5.936343669891357,
        1.0
      ]
    },
    {
      "mesh": 5,
      "name": "Box030"
    },
    {
      "children": [
        10
      ],
      "matrix": [
        -1.0,
        0.0,
        8.742277657347586e-08,
        0.0,
        8.742277657347586e-08,
        0.0,
        1.0,
        0.0,
        0.0,
        1.0,
        0.0,
        0.0,
        -2.4930784702301025,
        0.0,
        -0.24519693851470947,
        1.0
      ]
    },
    {
      "mesh": 6,
      "name": "Cielling"
    },
    {
      "children": [
        12
      ],
      "matrix": [
        1.0,
        0.0,
        0.0,
        0.0,
        0.0,
        0.0,
        -1.0,
        0.0,
        0.0,
        1.0,
        0.0,
        0.0,
        -1.675654649734497,
        3.3837006092071533,
        -0.16026052832603455,
        1.0
      ]
    }
  ],
  "samplers": [
    {
      "magFilter": 9729,
      "minFilter": 9729,
      "wrapS": 10497,
      "wrapT": 10497
    },
    {
      "magFilter": 9729,
      "minFilter": 9729,
      "wrapS": 10497,
      "wrapT": 10497
    },
    {
      "magFilter": 9729,
      "minFilter": 9729,
      "wrapS": 10497,
      "wrapT": 10497
    },
    {
      "magFilter": 9729,
      "minFilter": 9729,
      "wrapS": 10497,
      "wrapT": 10497
    },
    {
      "magFilter": 9729,
      "minFilter": 9729,
      "wrapS": 10497,
      "wrapT": 10497
    }
  ],
  "scenes": [
    {
      "nodes": [
        1,
        3,
        5,
        7,
        9,
        11,
        13
      ]
    }
  ],
  "textures": [
    {
      "name": "texture_source0_sampler0",
      "sampler": 0,
      "source": 0
    },
    {
      "name": "texture_source1_sampler1",
      "sampler": 1,
      "source": 1
    },
    {
      "name": "texture_source2_sampler2",
      "sampler": 2,
      "source": 2
    },
    {
      "name": "texture_source3_sampler3",
      "sampler": 3,
      "source": 3
    },
    {
      "name": "texture_source4_sampler4",
      "sampler": 4,
      "source": 4
    }
  ]
}
