{
  "accessors": [
    {
      "bufferView": 2,
      "componentType": 5126,
      "count": 22326,
      "max": [
        266.70001220703125,
        266.70001220703125,
        660.3416137695313
      ],
      "min": [
        -266.70001220703125,
        -266.70001220703125,
        -0.058400001376867294
      ],
      "type": "VEC3"
    },
    {
      "bufferView": 2,
      "byteOffset": 267912,
      "componentType": 5126,
      "count": 22326,
      "max": [
        0.9999973773956299,
        0.9999973773956299,
        1.0
      ],
      "min": [
        -0.9999973773956299,
        -0.9999973773956299,
        -1.0
      ],
      "type": "VEC3"
    },
    {
      "bufferView": 3,
      "componentType": 5126,
      "count": 22326,
      "max": [
        1.0,
        0.9999988079071045,
        0.9999951124191284,
        1.0
      ],
      "min": [
        -1.0,
        -1.0,
        -0.9998948574066162,
        -1.0
      ],
      "type": "VEC4"
    },
    {
      "bufferView": 1,
      "componentType": 5126,
      "count": 22326,
      "max": [
        0.9994999766349792,
        0.98580002784729
      ],
      "min": [
        0.0005000000237487257,
        0.0005000000237487257
      ],
      "type": "VEC2"
    },
    {
      "bufferView": 0,
      "componentType": 5125,
      "count": 112608,
      "type": "SCALAR"
    }
  ],
  "asset": {
    "extras": {
      "author": "Abdur Razzak Sawon (https://sketchfab.com/md.abdur.razzak.sawon)",
      "license": "CC-BY-4.0 (http://creativecommons.org/licenses/by/4.0/)",
      "source": "https://sketchfab.com/3d-models/dansby-olive-ash-side-table-89e717b7dda74aabb0cd415694d6dedb",
      "title": "Dansby Olive Ash Side Table"
    },
    "generator": "Sketchfab-16.15.0",
    "version": "2.0"
  },
  "bufferViews": [
    {
      "buffer": 0,
      "byteLength": 450432,
      "name": "floatBufferViews",
      "target": 34963
    },
    {
      "buffer": 0,
      "byteLength": 178608,
      "byteOffset": 450432,
      "byteStride": 8,
      "name": "floatBufferViews",
      "target": 34962
    },
    {
      "buffer": 0,
      "byteLength": 535824,
      "byteOffset": 629040,
      "byteStride": 12,
      "name": "floatBufferViews",
      "target": 34962
    },
    {
      "buffer": 0,
      "byteLength": 357216,
      "byteOffset": 1164864,
      "byteStride": 16,
      "name": "floatBufferViews",
      "target": 34962
    }
  ],
  "buffers": [
    {
      "byteLength": 1522080,
      "uri": "scene.bin"
    }
  ],
  "images": [
    {
      "uri": "textures/wire_086086086_baseColor.png"
    },
    {
      "uri": "textures/wire_086086086_metallicRoughness.png"
    },
    {
      "uri": "textures/wire_086086086_normal.png"
    }
  ],
  "materials": [
    {
      "doubleSided": true,
      "name": "wire_086086086",
      "normalTexture": {
        "index": 2
      },
      "pbrMetallicRoughness": {
        "baseColorTexture": {
          "index": 0
        },
        "metallicRoughnessTexture": {
          "index": 1
        }
      }
    }
  ],
  "meshes": [
    {
      "name": "Object_0",
      "primitives": [
        {
          "attributes": {
            "NORMAL": 1,
            "POSITION": 0,
            "TANGENT": 2,
            "TEXCOORD_0": 3
          },
          "indices": 4,
          "material": 0,
          "mode": 4
        }
      ]
    }
  ],
  "nodes": [
    {
      "children": [
        1
      ],
      "matrix": [
        1.0,
        0.0,
        0.0,
        0.0,
        0.0,
        2.220446049250313e-16,
        -1.0,
        0.0,
        0.0,
        1.0,
        2.220446049250313e-16,
        0.0,
        0.0,
        0.0,
        0.0,
        1.0
      ],
      "name": "Sketchfab_model"
    },
    {
      "children": [
        2
      ],
      "name": "Dansby_Olive_Ash_Side_Table.obj.cleaner.materialmerger.gles"
    },
    {
      "mesh": 0,
      "name": "Object_2"
    }
  ],
  "samplers": [
    {
      "magFilter": 9729,
      "minFilter": 9987,
      "wrapS": 10497,
      "wrapT": 10497
    }
  ],
  "scene": 0,
  "scenes": [
    {
      "name": "Sketchfab_Scene",
      "nodes": [
        0
      ]
    }
  ],
  "textures": [
    {
      "sampler": 0,
      "source": 0
    },
    {
      "sampler": 0,
      "source": 1
    },
    {
      "sampler": 0,
      "source": 2
    }
  ]
}
