{
  "accessors": [
    {
      "bufferView": 2,
      "componentType": 5126,
      "count": 311,
      "max": [
        0.34880000352859497,
        0.07919999957084656,
        1.079699993133545
      ],
      "min": [
        -0.35030001401901245,
        -0.120899997651577,
        0.28459998965263367
      ],
      "type": "VEC3"
    },
    {
      "bufferView": 2,
      "byteOffset": 3732,
      "componentType": 5126,
      "count": 311,
      "max": [
        0.9869716167449951,
        1.0,
        0.999971866607666
      ],
      "min": [
        -0.9869716167449951,
        -1.0,
        -0.9869716167449951
      ],
      "type": "VEC3"
    },
    {
      "bufferView": 3,
      "componentType": 5126,
      "count": 311,
      "max": [
        0.7154420614242554,
        0.9898113012313843,
        0.9339052438735962,
        1.0
      ],
      "min": [
        -0.9022923111915588,
        -0.9763112664222717,
        -0.5344809889793396,
        1.0
      ],
      "type": "VEC4"
    },
    {
      "bufferView": 1,
      "componentType": 5126,
      "count": 311,
      "max": [
        0.9904999732971191,
        0.994700014591217
      ],
      "min": [
        0.4032000005245209,
        0.032099999487400055
      ],
      "type": "VEC2"
    },
    {
      "bufferView": 0,
      "componentType": 5125,
      "count": 1662,
      "type": "SCALAR"
    },
    {
      "bufferView": 2,
      "byteOffset": 7464,
      "componentType": 5126,
      "count": 425,
      "max": [
        0.448199987411499,
        -0.31859999895095825,
        0.3188000023365021
      ],
      "min": [
        -0.44859999418258667,
        -0.8126000165939331,
        -0.5778999924659729
      ],
      "type": "VEC3"
    },
    {
      "bufferView": 2,
      "byteOffset": 12564,
      "componentType": 5126,
      "count": 425,
      "max": [
        1.0,
        1.0,
        1.0
      ],
      "min": [
        -1.0,
        -1.0,
        -1.0
      ],
      "type": "VEC3"
    },
    {
      "bufferView": 3,
      "byteOffset": 4976,
      "componentType": 5126,
      "count": 425,
      "max": [
        1.0,
        0.06537385284900665,
        1.0,
        1.0
      ],
      "min": [
        -1.0,
        -0.06555072218179703,
        -1.0,
        1.0
      ],
      "type": "VEC4"
    },
    {
      "bufferView": 1,
      "byteOffset": 2488,
      "componentType": 5126,
      "count": 425,
      "max": [
        0.7443000078201294,
        0.8140000104904175
      ],
      "min": [
        0.006099999882280827,
        0.3269999921321869
      ],
      "type": "VEC2"
    },
    {
      "bufferView": 0,
      "byteOffset": 6648,
      "componentType": 5125,
      "count": 2160,
      "type": "SCALAR"
    },
    {
      "bufferView": 2,
      "byteOffset": 17664,
      "componentType": 5126,
      "count": 2715,
      "max": [
        0.21719999611377716,
        1.1514999866485596,
        0.45350000262260437
      ],
      "min": [
        -0.21719999611377716,
        -0.39800000190734863,
        -0.7759000062942505
      ],
      "type": "VEC3"
    },
    {
      "bufferView": 2,
      "byteOffset": 50244,
      "componentType": 5126,
      "count": 2715,
      "max": [
        0.9999997615814209,
        0.9996593594551086,
        0.9999088644981384
      ],
      "min": [
        -0.9999997615814209,
        -0.9998905062675476,
        -0.9999696612358093
      ],
      "type": "VEC3"
    },
    {
      "bufferView": 3,
      "byteOffset": 11776,
      "componentType": 5126,
      "count": 2715,
      "max": [
        1.0,
        0.9969679117202759,
        0.9997641444206238,
        1.0
      ],
      "min": [
        -1.0,
        -0.9718445539474487,
        -0.9998419880867004,
        -1.0
      ],
      "type": "VEC4"
    },
    {
      "bufferView": 1,
      "byteOffset": 5888,
      "componentType": 5126,
      "count": 2715,
      "max": [
        0.9980000257492065,
        0.9975000023841858
      ],
      "min": [
        0.0024999999441206455,
        0.0007999999797903001
      ],
      "type": "VEC2"
    },
    {
      "bufferView": 0,
      "byteOffset": 15288,
      "componentType": 5125,
      "count": 13410,
      "type": "SCALAR"
    }
  ],
  "asset": {
    "extras": {
      "author": "Freepoly.org (https://sketchfab.com/blackrray)",
      "license": "CC-BY-4.0 (http://creativecommons.org/licenses/by/4.0/)",
      "source": "https://sketchfab.com/3d-models/chinese-candlestick-freepolyorg-e34a5a581e2143f9bdda0431ce53ed59",
      "title": "Chinese Candlestick-Freepoly.org"
    },
    "generator": "Sketchfab-14.97.0",
    "version": "2.0"
  },
  "bufferViews": [
    {
      "buffer": 0,
      "byteLength": 68928,
      "name": "floatBufferViews",
      "target": 34963
    },
    {
      "buffer": 0,
      "byteLength": 27608,
      "byteOffset": 68928,
      "byteStride": 8,
      "name": "floatBufferViews",
      "target": 34962
    },
    {
      "buffer": 0,
      "byteLength": 82824,
      "byteOffset": 96536,
      "byteStride": 12,
      "name": "floatBufferViews",
      "target": 34962
    },
    {
      "buffer": 0,
      "byteLength": 55216,
      "byteOffset": 179360,
      "byteStride": 16,
      "name": "floatBufferViews",
      "target": 34962
    }
  ],
  "buffers": [
    {
      "byteLength": 234576,
      "uri": "scene.bin"
    }
  ],
  "images": [
    {
      "uri": "textures/01___Default_baseColor.jpeg"
    },
    {
      "uri": "textures/01___Default_metallicRoughness.png"
    },
    {
      "uri": "textures/01___Default_normal.png"
    }
  ],
  "materials": [
    {
      "doubleSided": true,
      "name": "01___Default",
      "normalTexture": {
        "index": 2
      },
      "occlusionTexture": {
        "index": 1
      },
      "pbrMetallicRoughness": {
        "baseColorTexture": {
          "index": 0
        },
        "metallicRoughnessTexture": {
          "index": 1
        }
      }
    }
  ],
  "meshes": [
    {
      "name": "defaultMaterial",
      "primitives": [
        {
          "attributes": {
            "NORMAL": 1,
            "POSITION": 0,
            "TANGENT": 2,
            "TEXCOORD_0": 3
          },
          "indices": 4,
          "material": 0,
          "mode": 4
        }
      ]
    },
    {
      "name": "defaultMaterial",
      "primitives": [
        {
          "attributes": {
            "NORMAL": 6,
            "POSITION": 5,
            "TANGENT": 7,
            "TEXCOORD_0": 8
          },
          "indices": 9,
          "material": 0,
          "mode": 4
        }
      ]
    },
    {
      "name": "defaultMaterial",
      "primitives": [
        {
          "attributes": {
            "NORMAL": 11,
            "POSITION": 10,
            "TANGENT": 12,
            "TEXCOORD_0": 13
          },
          "indices": 14,
          "material": 0,
          "mode": 4
        }
      ]
    }
  ],
  "nodes": [
    {
      "children": [
        1
      ],
      "matrix": [
        0.09203428030014038,
        0.0,
        0.0,
        0.0,
        0.0,
        2.0435715408804263e-17,
        -0.09203428030014038,
        0.0,
        0.0,
        0.09203428030014038,
        2.0435715408804263e-17,
        0.0,
        0.0,
        0.0,
        0.0,
        1.0
      ],
      "name": "Sketchfab_model"
    },
    {
      "children": [
        2,
        4,
        6
      ],
      "matrix": [
        1.0,
        0.0,
        0.0,
        0.0,
        0.0,
        -4.371139006309477e-08,
        0.999999999999999,
        0.0,
        0.0,
        -0.999999999999999,
        -4.371139006309477e-08,
        0.0,
        0.0,
        0.0,
        0.0,
        1.0
      ],
      "name": "Collada visual scene group"
    },
    {
      "children": [
        3
      ],
      "name": "Sphere001"
    },
    {
      "mesh": 0,
      "name": "defaultMaterial"
    },
    {
      "children": [
        5
      ],
      "name": "Cylinder001"
    },
    {
      "mesh": 1,
      "name": "defaultMaterial"
    },
    {
      "children": [
        7
      ],
      "name": "sa"
    },
    {
      "mesh": 2,
      "name": "defaultMaterial"
    }
  ],
  "samplers": [
    {
      "magFilter": 9729,
      "minFilter": 9987,
      "wrapS": 10497,
      "wrapT": 10497
    }
  ],
  "scene": 0,
  "scenes": [
    {
      "name": "Sketchfab_Scene",
      "nodes": [
        0
      ]
    }
  ],
  "textures": [
    {
      "sampler": 0,
      "source": 0
    },
    {
      "sampler": 0,
      "source": 1
    },
    {
      "sampler": 0,
      "source": 2
    }
  ]
}
