{
  "accessors": [
    {
      "bufferView": 0,
      "componentType": 5126,
      "count": 188,
      "max": [
        0.13393555581569672,
        0.9332108497619629,
        3.4000000953674316
      ],
      "min": [
        -0.06606463342905045,
        -5.150000095367432,
        0.0
      ],
      "type": "VEC3"
    },
    {
      "bufferView": 0,
      "byteOffset": 12,
      "componentType": 5126,
      "count": 188,
      "type": "VEC3"
    },
    {
      "bufferView": 0,
      "byteOffset": 24,
      "componentType": 5126,
      "count": 188,
      "type": "VEC2"
    },
    {
      "bufferView": 1,
      "componentType": 5125,
      "count": 396,
      "type": "SCALAR"
    }
  ],
  "asset": {
    "version": "2.0"
  },
  "bufferViews": [
    {
      "buffer": 0,
      "byteLength": 6016,
      "byteStride": 32,
      "target": 34962
    },
    {
      "buffer": 0,
      "byteLength": 1584,
      "byteOffset": 6016,
      "target": 34963
    }
  ],
  "buffers": [
    {
      "byteLength": 7600,
      "uri": "building_door2.bin"
    }
  ],
  "images": [
    {
      "uri": "Material__28basecolortexture.jpeg"
    }
  ],
  "materials": [
    {
      "name": "Material__28",
      "pbrMetallicRoughness": {
        "baseColorFactor": [
          0.5,
          0.5,
          0.5,
          1.0
        ],
        "baseColorTexture": {
          "index": 0
        },
        "metallicFactor": 0.0,
        "roughnessFactor": 0.5
      }
    }
  ],
  "meshes": [
    {
      "name": "Box029",
      "primitives": [
        {
          "attributes": {
            "NORMAL": 1,
            "POSITION": 0,
            "TEXCOORD_0": 2
          },
          "indices": 3,
          "material": 0,
          "mode": 4
        }
      ]
    }
  ],
  "nodes": [
    {
      "mesh": 0,
      "name": "Box029"
    },
    {
      "children": [
        0
      ],
      "matrix": [
        -4.371138828673793e-08,
        0.0,
        -1.0,
        0.0,
        -1.0,
        0.0,
        4.371138828673793e-08,
        0.0,
        0.0,
        1.0,
        0.0,
        0.0,
        16.29682159423828,
        0.0,
        8.459543228149414,
        1.0
      ]
    }
  ],
  "samplers": [
    {
      "magFilter": 9729,
      "minFilter": 9729,
      "wrapS": 10497,
      "wrapT": 10497
    }
  ],
  "scenes": [
    {
      "nodes": [
        1
      ]
    }
  ],
  "textures": [
    {
      "name": "texture_source0_sampler0",
      "sampler": 0,
      "source": 0
    }
  ]
}
