{
  "accessors": [
    {
      "bufferView": 2,
      "componentType": 5126,
      "count": 43910,
      "max": [
        0.07178299874067307,
        -0.0006629999843426049,
        0.0677269995212555
      ],
      "min": [
        -0.07174699753522873,
        -0.3211739957332611,
        -0.07756499946117401
      ],
      "type": "VEC3"
    },
    {
      "bufferView": 2,
      "byteOffset": 526920,
      "componentType": 5126,
      "count": 43910,
      "max": [
        0.9999964237213135,
        0.9999935626983643,
        0.9999589920043945
      ],
      "min": [
        -0.999996542930603,
        -0.999765932559967,
        -0.999984860420227
      ],
      "type": "VEC3"
    },
    {
      "bufferView": 3,
      "componentType": 5126,
      "count": 43910,
      "max": [
        0.9998995661735535,
        0.9999901652336121,
        0.9998782873153687,
        1.0
      ],
      "min": [
        -0.9999839663505554,
        -0.9999395608901978,
        -0.999943733215332,
        -1.0
      ],
      "type": "VEC4"
    },
    {
      "bufferView": 1,
      "componentType": 5126,
      "count": 43910,
      "max": [
        0.9990230202674866,
        0.9935129880905151
      ],
      "min": [
        0.0009769999887794256,
        0.0009769999887794256
      ],
      "type": "VEC2"
    },
    {
      "bufferView": 0,
      "componentType": 5125,
      "count": 135000,
      "type": "SCALAR"
    }
  ],
  "asset": {
    "extras": {
      "author": "Cleveland Museum of Art (https://sketchfab.com/clevelandart)",
      "license": "CC-BY-4.0 (http://creativecommons.org/licenses/by/4.0/)",
      "source": "https://sketchfab.com/3d-models/19441291-young-satyress-d4e59f2f8b5c49e9b2c174e8c4431c6c",
      "title": "1944.129.1 Young Satyress"
    },
    "generator": "Sketchfab-14.87.0",
    "version": "2.0"
  },
  "bufferViews": [
    {
      "buffer": 0,
      "byteLength": 540000,
      "name": "floatBufferViews",
      "target": 34963
    },
    {
      "buffer": 0,
      "byteLength": 351280,
      "byteOffset": 540000,
      "byteStride": 8,
      "name": "floatBufferViews",
      "target": 34962
    },
    {
      "buffer": 0,
      "byteLength": 1053840,
      "byteOffset": 891280,
      "byteStride": 12,
      "name": "floatBufferViews",
      "target": 34962
    },
    {
      "buffer": 0,
      "byteLength": 702560,
      "byteOffset": 1945120,
      "byteStride": 16,
      "name": "floatBufferViews",
      "target": 34962
    }
  ],
  "buffers": [
    {
      "byteLength": 2647680,
      "uri": "scene.bin"
    }
  ],
  "images": [
    {
      "uri": "textures/Satyr_Mats_baseColor.jpeg"
    },
    {
      "uri": "textures/Satyr_Mats_metallicRoughness.png"
    },
    {
      "uri": "textures/Satyr_Mats_normal.jpeg"
    }
  ],
  "materials": [
    {
      "doubleSided": true,
      "name": "Satyr_Mats",
      "normalTexture": {
        "index": 2
      },
      "pbrMetallicRoughness": {
        "baseColorTexture": {
          "index": 0
        },
        "metallicFactor": 0.0,
        "metallicRoughnessTexture": {
          "index": 1
        }
      }
    }
  ],
  "meshes": [
    {
      "name": "Object_0",
      "primitives": [
        {
          "attributes": {
            "NORMAL": 1,
            "POSITION": 0,
            "TANGENT": 2,
            "TEXCOORD_0": 3
          },
          "indices": 4,
          "material": 0,
          "mode": 4
        }
      ]
    }
  ],
  "nodes": [
    {
      "children": [
        1
      ],
      "matrix": [
        -0.9893962740898132,
        9.383335036732083e-18,
        0.14524121582508087,
        0.0,
        -1.3877787807814457e-17,
        -1.0,
        1.1102230246251565e-16,
        0.0,
        0.14524121582508087,
        -2.1969010479457057e-16,
        0.9893962740898132,
        0.0,
        0.0,
        0.0,
        0.0,
        1.0
      ],
      "name": "Sketchfab_model"
    },
    {
      "children": [
        2
      ],
      "name": "Young Satyr 1.obj.cleaner.materialmerger.gles"
    },
    {
      "mesh": 0,
      "name": "Object_2"
    }
  ],
  "samplers": [
    {
      "magFilter": 9729,
      "minFilter": 9987,
      "wrapS": 10497,
      "wrapT": 10497
    }
  ],
  "scene": 0,
  "scenes": [
    {
      "name": "Sketchfab_Scene",
      "nodes": [
        0
      ]
    }
  ],
  "textures": [
    {
      "sampler": 0,
      "source": 0
    },
    {
      "sampler": 0,
      "source": 1
    },
    {
      "sampler": 0,
      "source": 2
    }
  ]
}
