v -0.375 0.09675001 0.375
v -0.375 0.09675001 -0.375
v -0.3723958 0.09675001 0.4131944
v -0.375 0.09675001 -0.375
v -0.3723958 0.09675001 -0.4131944
v -0.3723958 0.09675001 0.4131944
v -0.3723958 0.09675001 0.4131944
v -0.3723958 0.09675001 -0.4131944
v -0.3645833 0.09675001 0.4444444
v -0.3723958 0.09675001 -0.4131944
v -0.3645833 0.09675001 -0.4444444
v -0.3645833 0.09675001 0.4444444
v -0.3645833 0.09675001 0.4444444
v -0.3645833 0.09675001 -0.4444444
v -0.3515625 0.09675001 0.46875
v -0.3645833 0.09675001 -0.4444444
v -0.3515625 0.09675001 -0.46875
v -0.3515625 0.09675001 0.46875
v -0.3515625 0.09675001 0.46875
v -0.3515625 0.09675001 -0.46875
v -0.3333333 0.09675001 0.4861111
v -0.3515625 0.09675001 -0.46875
v -0.3333333 0.09675001 -0.4861111
v -0.3333333 0.09675001 0.4861111
v -0.3333333 0.09675001 0.4861111
v -0.3333333 0.09675001 -0.4861111
v -0.3098958 0.09675001 0.4965278
v -0.3333333 0.09675001 -0.4861111
v -0.3098958 0.09675001 -0.4965278
v -0.3098958 0.09675001 0.4965278
v -0.3098958 0.09675001 0.4965278
v -0.3098958 0.09675001 -0.4965278
v -0.28125 0.09675001 0.5
v -0.3098958 0.09675001 -0.4965278
v -0.28125 0.09675001 -0.5
v -0.28125 0.09675001 0.5
v -0.28125 0.09675001 0.5
v -0.28125 0.09675001 -0.5
v 0.28125 0.09675001 0.5
v -0.28125 0.09675001 -0.5
v 0.28125 0.09675001 -0.5
v 0.28125 0.09675001 0.5
v 0.28125 0.09675001 0.5
v 0.28125 0.09675001 -0.5
v 0.3098958 0.09675001 0.4965278
v 0.28125 0.09675001 -0.5
v 0.3098958 0.09675001 -0.4965278
v 0.3098958 0.09675001 0.4965278
v 0.3098958 0.09675001 0.4965278
v 0.3098958 0.09675001 -0.4965278
v 0.3333333 0.09675001 0.4861111
v 0.3098958 0.09675001 -0.4965278
v 0.3333333 0.09675001 -0.4861111
v 0.3333333 0.09675001 0.4861111
v 0.3333333 0.09675001 0.4861111
v 0.3333333 0.09675001 -0.4861111
v 0.3515625 0.09675001 0.46875
v 0.3333333 0.09675001 -0.4861111
v 0.3515625 0.09675001 -0.46875
v 0.3515625 0.09675001 0.46875
v 0.3515625 0.09675001 0.46875
v 0.3515625 0.09675001 -0.46875
v 0.3645833 0.09675001 0.4444444
v 0.3515625 0.09675001 -0.46875
v 0.3645833 0.09675001 -0.4444444
v 0.3645833 0.09675001 0.4444444
v 0.3645833 0.09675001 0.4444444
v 0.3645833 0.09675001 -0.4444444
v 0.3723958 0.09675001 0.4131944
v 0.3645833 0.09675001 -0.4444444
v 0.3723958 0.09675001 -0.4131944
v 0.3723958 0.09675001 0.4131944
v 0.3723958 0.09675001 0.4131944
v 0.3723958 0.09675001 -0.4131944
v 0.375 0.09675001 0.375
v 0.3723958 0.09675001 -0.4131944
v 0.375 0.09675001 -0.375
v 0.375 0.09675001 0.375
v 0.375 0.09675001 -0.375
v 0.3723958 0.09675001 -0.4131944
v 0.375 1.117587E-08 -0.375
v 0.375 1.117587E-08 -0.375
v 0.3723958 0.09675001 -0.4131944
v 0.3723958 1.117587E-08 -0.4131944
v -0.375 0.09675001 0.375
v -0.3723958 0.09675001 0.4131944
v -0.375 1.117587E-08 0.375
v -0.375 1.117587E-08 0.375
v -0.3723958 0.09675001 0.4131944
v -0.3723958 1.117587E-08 0.4131944
v 0.3723958 0.09675001 -0.4131944
v 0.3645833 0.09675001 -0.4444444
v 0.3723958 1.117587E-08 -0.4131944
v 0.3723958 1.117587E-08 -0.4131944
v 0.3645833 0.09675001 -0.4444444
v 0.3645833 1.117587E-08 -0.4444444
v -0.3723958 0.09675001 0.4131944
v -0.3645833 0.09675001 0.4444444
v -0.3723958 1.117587E-08 0.4131944
v -0.3723958 1.117587E-08 0.4131944
v -0.3645833 0.09675001 0.4444444
v -0.3645833 1.117587E-08 0.4444444
v 0.3645833 0.09675001 -0.4444444
v 0.3515625 0.09675001 -0.46875
v 0.3645833 1.117587E-08 -0.4444444
v 0.3645833 1.117587E-08 -0.4444444
v 0.3515625 0.09675001 -0.46875
v 0.3515625 1.117587E-08 -0.46875
v -0.3645833 0.09675001 0.4444444
v -0.3515625 0.09675001 0.46875
v -0.3645833 1.117587E-08 0.4444444
v -0.3645833 1.117587E-08 0.4444444
v -0.3515625 0.09675001 0.46875
v -0.3515625 1.117587E-08 0.46875
v 0.3515625 0.09675001 -0.46875
v 0.3333333 0.09675001 -0.4861111
v 0.3515625 1.117587E-08 -0.46875
v 0.3515625 1.117587E-08 -0.46875
v 0.3333333 0.09675001 -0.4861111
v 0.3333333 1.117587E-08 -0.4861111
v -0.3515625 0.09675001 0.46875
v -0.3333333 0.09675001 0.4861111
v -0.3515625 1.117587E-08 0.46875
v -0.3515625 1.117587E-08 0.46875
v -0.3333333 0.09675001 0.4861111
v -0.3333333 1.117587E-08 0.4861111
v 0.3333333 0.09675001 -0.4861111
v 0.3098958 0.09675001 -0.4965278
v 0.3333333 1.117587E-08 -0.4861111
v 0.3333333 1.117587E-08 -0.4861111
v 0.3098958 0.09675001 -0.4965278
v 0.3098958 1.117587E-08 -0.4965278
v -0.3333333 0.09675001 0.4861111
v -0.3098958 0.09675001 0.4965278
v -0.3333333 1.117587E-08 0.4861111
v -0.3333333 1.117587E-08 0.4861111
v -0.3098958 0.09675001 0.4965278
v -0.3098958 1.117587E-08 0.4965278
v 0.3098958 0.09675001 -0.4965278
v 0.28125 0.09675001 -0.5
v 0.3098958 1.117587E-08 -0.4965278
v 0.3098958 1.117587E-08 -0.4965278
v 0.28125 0.09675001 -0.5
v 0.28125 1.117587E-08 -0.5
v -0.3098958 0.09675001 0.4965278
v -0.28125 0.09675001 0.5
v -0.3098958 1.117587E-08 0.4965278
v -0.3098958 1.117587E-08 0.4965278
v -0.28125 0.09675001 0.5
v -0.28125 1.117587E-08 0.5
v 0.28125 0.09675001 -0.5
v -0.28125 0.09675001 -0.5
v 0.28125 1.117587E-08 -0.5
v 0.28125 1.117587E-08 -0.5
v -0.28125 0.09675001 -0.5
v -0.28125 1.117587E-08 -0.5
v -0.28125 0.09675001 0.5
v 0.28125 0.09675001 0.5
v -0.28125 1.117587E-08 0.5
v -0.28125 1.117587E-08 0.5
v 0.28125 0.09675001 0.5
v 0.28125 1.117587E-08 0.5
v -0.28125 0.09675001 -0.5
v -0.3098958 0.09675001 -0.4965278
v -0.28125 1.117587E-08 -0.5
v -0.28125 1.117587E-08 -0.5
v -0.3098958 0.09675001 -0.4965278
v -0.3098958 1.117587E-08 -0.4965278
v 0.28125 0.09675001 0.5
v 0.3098958 0.09675001 0.4965278
v 0.28125 1.117587E-08 0.5
v 0.28125 1.117587E-08 0.5
v 0.3098958 0.09675001 0.4965278
v 0.3098958 1.117587E-08 0.4965278
v -0.3098958 0.09675001 -0.4965278
v -0.3333333 0.09675001 -0.4861111
v -0.3098958 1.117587E-08 -0.4965278
v -0.3098958 1.117587E-08 -0.4965278
v -0.3333333 0.09675001 -0.4861111
v -0.3333333 1.117587E-08 -0.4861111
v 0.3098958 0.09675001 0.4965278
v 0.3333333 0.09675001 0.4861111
v 0.3098958 1.117587E-08 0.4965278
v 0.3098958 1.117587E-08 0.4965278
v 0.3333333 0.09675001 0.4861111
v 0.3333333 1.117587E-08 0.4861111
v -0.3333333 0.09675001 -0.4861111
v -0.3515625 0.09675001 -0.46875
v -0.3333333 1.117587E-08 -0.4861111
v -0.3333333 1.117587E-08 -0.4861111
v -0.3515625 0.09675001 -0.46875
v -0.3515625 1.117587E-08 -0.46875
v 0.3333333 0.09675001 0.4861111
v 0.3515625 0.09675001 0.46875
v 0.3333333 1.117587E-08 0.4861111
v 0.3333333 1.117587E-08 0.4861111
v 0.3515625 0.09675001 0.46875
v 0.3515625 1.117587E-08 0.46875
v -0.3515625 0.09675001 -0.46875
v -0.3645833 0.09675001 -0.4444444
v -0.3515625 1.117587E-08 -0.46875
v -0.3515625 1.117587E-08 -0.46875
v -0.3645833 0.09675001 -0.4444444
v -0.3645833 1.117587E-08 -0.4444444
v 0.3515625 0.09675001 0.46875
v 0.3645833 0.09675001 0.4444444
v 0.3515625 1.117587E-08 0.46875
v 0.3515625 1.117587E-08 0.46875
v 0.3645833 0.09675001 0.4444444
v 0.3645833 1.117587E-08 0.4444444
v -0.3645833 0.09675001 -0.4444444
v -0.3723958 0.09675001 -0.4131944
v -0.3645833 1.117587E-08 -0.4444444
v -0.3645833 1.117587E-08 -0.4444444
v -0.3723958 0.09675001 -0.4131944
v -0.3723958 1.117587E-08 -0.4131944
v 0.3645833 0.09675001 0.4444444
v 0.3723958 0.09675001 0.4131944
v 0.3645833 1.117587E-08 0.4444444
v 0.3645833 1.117587E-08 0.4444444
v 0.3723958 0.09675001 0.4131944
v 0.3723958 1.117587E-08 0.4131944
v -0.3723958 0.09675001 -0.4131944
v -0.375 0.09675001 -0.375
v -0.3723958 1.117587E-08 -0.4131944
v -0.3723958 1.117587E-08 -0.4131944
v -0.375 0.09675001 -0.375
v -0.375 1.117587E-08 -0.375
v 0.3723958 0.09675001 0.4131944
v 0.375 0.09675001 0.375
v 0.3723958 1.117587E-08 0.4131944
v 0.3723958 1.117587E-08 0.4131944
v 0.375 0.09675001 0.375
v 0.375 1.117587E-08 0.375
v -0.375 0.09675001 -0.375
v -0.375 0.09675001 0.375
v -0.375 1.117587E-08 -0.375
v -0.375 1.117587E-08 -0.375
v -0.375 0.09675001 0.375
v -0.375 1.117587E-08 0.375
v 0.375 0.09675001 0.375
v 0.375 0.09675001 -0.375
v 0.375 1.117587E-08 0.375
v 0.375 1.117587E-08 0.375
v 0.375 0.09675001 -0.375
v 0.375 1.117587E-08 -0.375
v -0.375 1.117587E-08 0.375
v -0.3723958 1.117587E-08 0.4131944
v -0.375 1.117587E-08 -0.375
v -0.375 1.117587E-08 -0.375
v -0.3723958 1.117587E-08 0.4131944
v -0.3723958 1.117587E-08 -0.4131944
v -0.3723958 1.117587E-08 0.4131944
v -0.3645833 1.117587E-08 0.4444444
v -0.3723958 1.117587E-08 -0.4131944
v -0.3723958 1.117587E-08 -0.4131944
v -0.3645833 1.117587E-08 0.4444444
v -0.3645833 1.117587E-08 -0.4444444
v -0.3645833 1.117587E-08 0.4444444
v -0.3515625 1.117587E-08 0.46875
v -0.3645833 1.117587E-08 -0.4444444
v -0.3645833 1.117587E-08 -0.4444444
v -0.3515625 1.117587E-08 0.46875
v -0.3515625 1.117587E-08 -0.46875
v -0.3515625 1.117587E-08 0.46875
v -0.3333333 1.117587E-08 0.4861111
v -0.3515625 1.117587E-08 -0.46875
v -0.3515625 1.117587E-08 -0.46875
v -0.3333333 1.117587E-08 0.4861111
v -0.3333333 1.117587E-08 -0.4861111
v -0.3333333 1.117587E-08 0.4861111
v -0.3098958 1.117587E-08 0.4965278
v -0.3333333 1.117587E-08 -0.4861111
v -0.3333333 1.117587E-08 -0.4861111
v -0.3098958 1.117587E-08 0.4965278
v -0.3098958 1.117587E-08 -0.4965278
v -0.3098958 1.117587E-08 0.4965278
v -0.28125 1.117587E-08 0.5
v -0.3098958 1.117587E-08 -0.4965278
v -0.3098958 1.117587E-08 -0.4965278
v -0.28125 1.117587E-08 0.5
v -0.28125 1.117587E-08 -0.5
v -0.28125 1.117587E-08 0.5
v 0.28125 1.117587E-08 0.5
v -0.28125 1.117587E-08 -0.5
v -0.28125 1.117587E-08 -0.5
v 0.28125 1.117587E-08 0.5
v 0.28125 1.117587E-08 -0.5
v 0.28125 1.117587E-08 0.5
v 0.3098958 1.117587E-08 0.4965278
v 0.28125 1.117587E-08 -0.5
v 0.28125 1.117587E-08 -0.5
v 0.3098958 1.117587E-08 0.4965278
v 0.3098958 1.117587E-08 -0.4965278
v 0.3098958 1.117587E-08 0.4965278
v 0.3333333 1.117587E-08 0.4861111
v 0.3098958 1.117587E-08 -0.4965278
v 0.3098958 1.117587E-08 -0.4965278
v 0.3333333 1.117587E-08 0.4861111
v 0.3333333 1.117587E-08 -0.4861111
v 0.3333333 1.117587E-08 0.4861111
v 0.3515625 1.117587E-08 0.46875
v 0.3333333 1.117587E-08 -0.4861111
v 0.3333333 1.117587E-08 -0.4861111
v 0.3515625 1.117587E-08 0.46875
v 0.3515625 1.117587E-08 -0.46875
v 0.3515625 1.117587E-08 0.46875
v 0.3645833 1.117587E-08 0.4444444
v 0.3515625 1.117587E-08 -0.46875
v 0.3515625 1.117587E-08 -0.46875
v 0.3645833 1.117587E-08 0.4444444
v 0.3645833 1.117587E-08 -0.4444444
v 0.3645833 1.117587E-08 0.4444444
v 0.3723958 1.117587E-08 0.4131944
v 0.3645833 1.117587E-08 -0.4444444
v 0.3645833 1.117587E-08 -0.4444444
v 0.3723958 1.117587E-08 0.4131944
v 0.3723958 1.117587E-08 -0.4131944
v 0.3723958 1.117587E-08 0.4131944
v 0.375 1.117587E-08 0.375
v 0.3723958 1.117587E-08 -0.4131944
v 0.3723958 1.117587E-08 -0.4131944
v 0.375 1.117587E-08 0.375
v 0.375 1.117587E-08 -0.375
v -0.28125 0.18275 0.28125
v -0.28125 0.18275 -0.28125
v -0.2792969 0.18275 0.3098958
v -0.28125 0.18275 -0.28125
v -0.2792969 0.18275 -0.3098958
v -0.2792969 0.18275 0.3098958
v -0.2792969 0.18275 0.3098958
v -0.2792969 0.18275 -0.3098958
v -0.2734375 0.18275 0.3333333
v -0.2792969 0.18275 -0.3098958
v -0.2734375 0.18275 -0.3333333
v -0.2734375 0.18275 0.3333333
v -0.2734375 0.18275 0.3333333
v -0.2734375 0.18275 -0.3333333
v -0.2636719 0.18275 0.3515625
v -0.2734375 0.18275 -0.3333333
v -0.2636719 0.18275 -0.3515625
v -0.2636719 0.18275 0.3515625
v -0.2636719 0.18275 0.3515625
v -0.2636719 0.18275 -0.3515625
v -0.25 0.18275 0.3645833
v -0.2636719 0.18275 -0.3515625
v -0.25 0.18275 -0.3645833
v -0.25 0.18275 0.3645833
v -0.25 0.18275 0.3645833
v -0.25 0.18275 -0.3645833
v -0.2324219 0.18275 0.3723958
v -0.25 0.18275 -0.3645833
v -0.2324219 0.18275 -0.3723958
v -0.2324219 0.18275 0.3723958
v -0.2324219 0.18275 0.3723958
v -0.2324219 0.18275 -0.3723958
v -0.2109375 0.18275 0.375
v -0.2324219 0.18275 -0.3723958
v -0.2109375 0.18275 -0.375
v -0.2109375 0.18275 0.375
v -0.2109375 0.18275 0.375
v -0.2109375 0.18275 -0.375
v 0.2109375 0.18275 0.375
v -0.2109375 0.18275 -0.375
v 0.2109375 0.18275 -0.375
v 0.2109375 0.18275 0.375
v 0.2109375 0.18275 0.375
v 0.2109375 0.18275 -0.375
v 0.2324219 0.18275 0.3723958
v 0.2109375 0.18275 -0.375
v 0.2324219 0.18275 -0.3723958
v 0.2324219 0.18275 0.3723958
v 0.2324219 0.18275 0.3723958
v 0.2324219 0.18275 -0.3723958
v 0.25 0.18275 0.3645833
v 0.2324219 0.18275 -0.3723958
v 0.25 0.18275 -0.3645833
v 0.25 0.18275 0.3645833
v 0.25 0.18275 0.3645833
v 0.25 0.18275 -0.3645833
v 0.2636719 0.18275 0.3515625
v 0.25 0.18275 -0.3645833
v 0.2636719 0.18275 -0.3515625
v 0.2636719 0.18275 0.3515625
v 0.2636719 0.18275 0.3515625
v 0.2636719 0.18275 -0.3515625
v 0.2734375 0.18275 0.3333333
v 0.2636719 0.18275 -0.3515625
v 0.2734375 0.18275 -0.3333333
v 0.2734375 0.18275 0.3333333
v 0.2734375 0.18275 0.3333333
v 0.2734375 0.18275 -0.3333333
v 0.2792969 0.18275 0.3098958
v 0.2734375 0.18275 -0.3333333
v 0.2792969 0.18275 -0.3098958
v 0.2792969 0.18275 0.3098958
v 0.2792969 0.18275 0.3098958
v 0.2792969 0.18275 -0.3098958
v 0.28125 0.18275 0.28125
v 0.2792969 0.18275 -0.3098958
v 0.28125 0.18275 -0.28125
v 0.28125 0.18275 0.28125
v 0.28125 0.18275 -0.28125
v 0.2792969 0.18275 -0.3098958
v 0.28125 0.09674998 -0.28125
v 0.28125 0.09674998 -0.28125
v 0.2792969 0.18275 -0.3098958
v 0.2792969 0.09674998 -0.3098958
v -0.28125 0.18275 0.28125
v -0.2792969 0.18275 0.3098958
v -0.28125 0.09674998 0.28125
v -0.28125 0.09674998 0.28125
v -0.2792969 0.18275 0.3098958
v -0.2792969 0.09674998 0.3098958
v 0.2792969 0.18275 -0.3098958
v 0.2734375 0.18275 -0.3333333
v 0.2792969 0.09674998 -0.3098958
v 0.2792969 0.09674998 -0.3098958
v 0.2734375 0.18275 -0.3333333
v 0.2734375 0.09674998 -0.3333333
v -0.2792969 0.18275 0.3098958
v -0.2734375 0.18275 0.3333333
v -0.2792969 0.09674998 0.3098958
v -0.2792969 0.09674998 0.3098958
v -0.2734375 0.18275 0.3333333
v -0.2734375 0.09674998 0.3333333
v 0.2734375 0.18275 -0.3333333
v 0.2636719 0.18275 -0.3515625
v 0.2734375 0.09674998 -0.3333333
v 0.2734375 0.09674998 -0.3333333
v 0.2636719 0.18275 -0.3515625
v 0.2636719 0.09674998 -0.3515625
v -0.2734375 0.18275 0.3333333
v -0.2636719 0.18275 0.3515625
v -0.2734375 0.09674998 0.3333333
v -0.2734375 0.09674998 0.3333333
v -0.2636719 0.18275 0.3515625
v -0.2636719 0.09674998 0.3515625
v 0.2636719 0.18275 -0.3515625
v 0.25 0.18275 -0.3645833
v 0.2636719 0.09674998 -0.3515625
v 0.2636719 0.09674998 -0.3515625
v 0.25 0.18275 -0.3645833
v 0.25 0.09674998 -0.3645833
v -0.2636719 0.18275 0.3515625
v -0.25 0.18275 0.3645833
v -0.2636719 0.09674998 0.3515625
v -0.2636719 0.09674998 0.3515625
v -0.25 0.18275 0.3645833
v -0.25 0.09674998 0.3645833
v 0.25 0.18275 -0.3645833
v 0.2324219 0.18275 -0.3723958
v 0.25 0.09674998 -0.3645833
v 0.25 0.09674998 -0.3645833
v 0.2324219 0.18275 -0.3723958
v 0.2324219 0.09674998 -0.3723958
v -0.25 0.18275 0.3645833
v -0.2324219 0.18275 0.3723958
v -0.25 0.09674998 0.3645833
v -0.25 0.09674998 0.3645833
v -0.2324219 0.18275 0.3723958
v -0.2324219 0.09674998 0.3723958
v 0.2324219 0.18275 -0.3723958
v 0.2109375 0.18275 -0.375
v 0.2324219 0.09674998 -0.3723958
v 0.2324219 0.09674998 -0.3723958
v 0.2109375 0.18275 -0.375
v 0.2109375 0.09674998 -0.375
v -0.2324219 0.18275 0.3723958
v -0.2109375 0.18275 0.375
v -0.2324219 0.09674998 0.3723958
v -0.2324219 0.09674998 0.3723958
v -0.2109375 0.18275 0.375
v -0.2109375 0.09674998 0.375
v 0.2109375 0.18275 -0.375
v -0.2109375 0.18275 -0.375
v 0.2109375 0.09674998 -0.375
v 0.2109375 0.09674998 -0.375
v -0.2109375 0.18275 -0.375
v -0.2109375 0.09674998 -0.375
v -0.2109375 0.18275 0.375
v 0.2109375 0.18275 0.375
v -0.2109375 0.09674998 0.375
v -0.2109375 0.09674998 0.375
v 0.2109375 0.18275 0.375
v 0.2109375 0.09674998 0.375
v -0.2109375 0.18275 -0.375
v -0.2324219 0.18275 -0.3723958
v -0.2109375 0.09674998 -0.375
v -0.2109375 0.09674998 -0.375
v -0.2324219 0.18275 -0.3723958
v -0.2324219 0.09674998 -0.3723958
v 0.2109375 0.18275 0.375
v 0.2324219 0.18275 0.3723958
v 0.2109375 0.09674998 0.375
v 0.2109375 0.09674998 0.375
v 0.2324219 0.18275 0.3723958
v 0.2324219 0.09674998 0.3723958
v -0.2324219 0.18275 -0.3723958
v -0.25 0.18275 -0.3645833
v -0.2324219 0.09674998 -0.3723958
v -0.2324219 0.09674998 -0.3723958
v -0.25 0.18275 -0.3645833
v -0.25 0.09674998 -0.3645833
v 0.2324219 0.18275 0.3723958
v 0.25 0.18275 0.3645833
v 0.2324219 0.09674998 0.3723958
v 0.2324219 0.09674998 0.3723958
v 0.25 0.18275 0.3645833
v 0.25 0.09674998 0.3645833
v -0.25 0.18275 -0.3645833
v -0.2636719 0.18275 -0.3515625
v -0.25 0.09674998 -0.3645833
v -0.25 0.09674998 -0.3645833
v -0.2636719 0.18275 -0.3515625
v -0.2636719 0.09674998 -0.3515625
v 0.25 0.18275 0.3645833
v 0.2636719 0.18275 0.3515625
v 0.25 0.09674998 0.3645833
v 0.25 0.09674998 0.3645833
v 0.2636719 0.18275 0.3515625
v 0.2636719 0.09674998 0.3515625
v -0.2636719 0.18275 -0.3515625
v -0.2734375 0.18275 -0.3333333
v -0.2636719 0.09674998 -0.3515625
v -0.2636719 0.09674998 -0.3515625
v -0.2734375 0.18275 -0.3333333
v -0.2734375 0.09674998 -0.3333333
v 0.2636719 0.18275 0.3515625
v 0.2734375 0.18275 0.3333333
v 0.2636719 0.09674998 0.3515625
v 0.2636719 0.09674998 0.3515625
v 0.2734375 0.18275 0.3333333
v 0.2734375 0.09674998 0.3333333
v -0.2734375 0.18275 -0.3333333
v -0.2792969 0.18275 -0.3098958
v -0.2734375 0.09674998 -0.3333333
v -0.2734375 0.09674998 -0.3333333
v -0.2792969 0.18275 -0.3098958
v -0.2792969 0.09674998 -0.3098958
v 0.2734375 0.18275 0.3333333
v 0.2792969 0.18275 0.3098958
v 0.2734375 0.09674998 0.3333333
v 0.2734375 0.09674998 0.3333333
v 0.2792969 0.18275 0.3098958
v 0.2792969 0.09674998 0.3098958
v -0.2792969 0.18275 -0.3098958
v -0.28125 0.18275 -0.28125
v -0.2792969 0.09674998 -0.3098958
v -0.2792969 0.09674998 -0.3098958
v -0.28125 0.18275 -0.28125
v -0.28125 0.09674998 -0.28125
v 0.2792969 0.18275 0.3098958
v 0.28125 0.18275 0.28125
v 0.2792969 0.09674998 0.3098958
v 0.2792969 0.09674998 0.3098958
v 0.28125 0.18275 0.28125
v 0.28125 0.09674998 0.28125
v -0.28125 0.18275 -0.28125
v -0.28125 0.18275 0.28125
v -0.28125 0.09674998 -0.28125
v -0.28125 0.09674998 -0.28125
v -0.28125 0.18275 0.28125
v -0.28125 0.09674998 0.28125
v 0.28125 0.18275 0.28125
v 0.28125 0.18275 -0.28125
v 0.28125 0.09674998 0.28125
v 0.28125 0.09674998 0.28125
v 0.28125 0.18275 -0.28125
v 0.28125 0.09674998 -0.28125
v -0.28125 0.09674998 0.28125
v -0.2792969 0.09674998 0.3098958
v -0.28125 0.09674998 -0.28125
v -0.28125 0.09674998 -0.28125
v -0.2792969 0.09674998 0.3098958
v -0.2792969 0.09674998 -0.3098958
v -0.2792969 0.09674998 0.3098958
v -0.2734375 0.09674998 0.3333333
v -0.2792969 0.09674998 -0.3098958
v -0.2792969 0.09674998 -0.3098958
v -0.2734375 0.09674998 0.3333333
v -0.2734375 0.09674998 -0.3333333
v -0.2734375 0.09674998 0.3333333
v -0.2636719 0.09674998 0.3515625
v -0.2734375 0.09674998 -0.3333333
v -0.2734375 0.09674998 -0.3333333
v -0.2636719 0.09674998 0.3515625
v -0.2636719 0.09674998 -0.3515625
v -0.2636719 0.09674998 0.3515625
v -0.25 0.09674998 0.3645833
v -0.2636719 0.09674998 -0.3515625
v -0.2636719 0.09674998 -0.3515625
v -0.25 0.09674998 0.3645833
v -0.25 0.09674998 -0.3645833
v -0.25 0.09674998 0.3645833
v -0.2324219 0.09674998 0.3723958
v -0.25 0.09674998 -0.3645833
v -0.25 0.09674998 -0.3645833
v -0.2324219 0.09674998 0.3723958
v -0.2324219 0.09674998 -0.3723958
v -0.2324219 0.09674998 0.3723958
v -0.2109375 0.09674998 0.375
v -0.2324219 0.09674998 -0.3723958
v -0.2324219 0.09674998 -0.3723958
v -0.2109375 0.09674998 0.375
v -0.2109375 0.09674998 -0.375
v -0.2109375 0.09674998 0.375
v 0.2109375 0.09674998 0.375
v -0.2109375 0.09674998 -0.375
v -0.2109375 0.09674998 -0.375
v 0.2109375 0.09674998 0.375
v 0.2109375 0.09674998 -0.375
v 0.2109375 0.09674998 0.375
v 0.2324219 0.09674998 0.3723958
v 0.2109375 0.09674998 -0.375
v 0.2109375 0.09674998 -0.375
v 0.2324219 0.09674998 0.3723958
v 0.2324219 0.09674998 -0.3723958
v 0.2324219 0.09674998 0.3723958
v 0.25 0.09674998 0.3645833
v 0.2324219 0.09674998 -0.3723958
v 0.2324219 0.09674998 -0.3723958
v 0.25 0.09674998 0.3645833
v 0.25 0.09674998 -0.3645833
v 0.25 0.09674998 0.3645833
v 0.2636719 0.09674998 0.3515625
v 0.25 0.09674998 -0.3645833
v 0.25 0.09674998 -0.3645833
v 0.2636719 0.09674998 0.3515625
v 0.2636719 0.09674998 -0.3515625
v 0.2636719 0.09674998 0.3515625
v 0.2734375 0.09674998 0.3333333
v 0.2636719 0.09674998 -0.3515625
v 0.2636719 0.09674998 -0.3515625
v 0.2734375 0.09674998 0.3333333
v 0.2734375 0.09674998 -0.3333333
v 0.2734375 0.09674998 0.3333333
v 0.2792969 0.09674998 0.3098958
v 0.2734375 0.09674998 -0.3333333
v 0.2734375 0.09674998 -0.3333333
v 0.2792969 0.09674998 0.3098958
v 0.2792969 0.09674998 -0.3098958
v 0.2792969 0.09674998 0.3098958
v 0.28125 0.09674998 0.28125
v 0.2792969 0.09674998 -0.3098958
v 0.2792969 0.09674998 -0.3098958
v 0.28125 0.09674998 0.28125
v 0.28125 0.09674998 -0.28125
v 0.1875 0.18275 0.25
v 0.1875 0.18275 -0.25
v -0.1875 0.18275 0.25
v 0.1875 0.18275 -0.25
v -0.1875 0.18275 -0.25
v -0.1875 0.18275 0.25
v -0.1875 0.61275 0.25
v -0.1875 0.61275 -0.25
v 0.1875 0.61275 0.25
v -0.1875 0.61275 -0.25
v 0.1875 0.61275 -0.25
v 0.1875 0.61275 0.25
v -0.1875 0.18275 0.25
v -0.1875 0.18275 -0.25
v -0.1875 0.61275 0.25
v -0.1875 0.18275 -0.25
v -0.1875 0.61275 -0.25
v -0.1875 0.61275 0.25
v 0.1875 0.18275 -0.25
v 0.1875 0.18275 0.25
v 0.1875 0.61275 -0.25
v 0.1875 0.18275 0.25
v 0.1875 0.61275 0.25
v 0.1875 0.61275 -0.25
v 0.1875 0.18275 0.25
v -0.1875 0.18275 0.25
v 0.1875 0.61275 0.25
v -0.1875 0.18275 0.25
v -0.1875 0.61275 0.25
v 0.1875 0.61275 0.25
v -0.1875 0.18275 -0.25
v 0.1875 0.18275 -0.25
v -0.1875 0.61275 -0.25
v 0.1875 0.18275 -0.25
v 0.1875 0.61275 -0.25
v -0.1875 0.61275 -0.25
v -0.28125 0.7095 0.28125
v -0.28125 0.7095 -0.28125
v -0.2792969 0.7095 0.3098958
v -0.28125 0.7095 -0.28125
v -0.2792969 0.7095 -0.3098958
v -0.2792969 0.7095 0.3098958
v -0.2792969 0.7095 0.3098958
v -0.2792969 0.7095 -0.3098958
v -0.2734375 0.7095 0.3333333
v -0.2792969 0.7095 -0.3098958
v -0.2734375 0.7095 -0.3333333
v -0.2734375 0.7095 0.3333333
v -0.2734375 0.7095 0.3333333
v -0.2734375 0.7095 -0.3333333
v -0.2636719 0.7095 0.3515625
v -0.2734375 0.7095 -0.3333333
v -0.2636719 0.7095 -0.3515625
v -0.2636719 0.7095 0.3515625
v -0.2636719 0.7095 0.3515625
v -0.2636719 0.7095 -0.3515625
v -0.25 0.7095 0.3645833
v -0.2636719 0.7095 -0.3515625
v -0.25 0.7095 -0.3645833
v -0.25 0.7095 0.3645833
v -0.25 0.7095 0.3645833
v -0.25 0.7095 -0.3645833
v -0.2324219 0.7095 0.3723958
v -0.25 0.7095 -0.3645833
v -0.2324219 0.7095 -0.3723958
v -0.2324219 0.7095 0.3723958
v -0.2324219 0.7095 0.3723958
v -0.2324219 0.7095 -0.3723958
v -0.2109375 0.7095 0.375
v -0.2324219 0.7095 -0.3723958
v -0.2109375 0.7095 -0.375
v -0.2109375 0.7095 0.375
v -0.2109375 0.7095 0.375
v -0.2109375 0.7095 -0.375
v 0.2109375 0.7095 0.375
v -0.2109375 0.7095 -0.375
v 0.2109375 0.7095 -0.375
v 0.2109375 0.7095 0.375
v 0.2109375 0.7095 0.375
v 0.2109375 0.7095 -0.375
v 0.2324219 0.7095 0.3723958
v 0.2109375 0.7095 -0.375
v 0.2324219 0.7095 -0.3723958
v 0.2324219 0.7095 0.3723958
v 0.2324219 0.7095 0.3723958
v 0.2324219 0.7095 -0.3723958
v 0.25 0.7095 0.3645833
v 0.2324219 0.7095 -0.3723958
v 0.25 0.7095 -0.3645833
v 0.25 0.7095 0.3645833
v 0.25 0.7095 0.3645833
v 0.25 0.7095 -0.3645833
v 0.2636719 0.7095 0.3515625
v 0.25 0.7095 -0.3645833
v 0.2636719 0.7095 -0.3515625
v 0.2636719 0.7095 0.3515625
v 0.2636719 0.7095 0.3515625
v 0.2636719 0.7095 -0.3515625
v 0.2734375 0.7095 0.3333333
v 0.2636719 0.7095 -0.3515625
v 0.2734375 0.7095 -0.3333333
v 0.2734375 0.7095 0.3333333
v 0.2734375 0.7095 0.3333333
v 0.2734375 0.7095 -0.3333333
v 0.2792969 0.7095 0.3098958
v 0.2734375 0.7095 -0.3333333
v 0.2792969 0.7095 -0.3098958
v 0.2792969 0.7095 0.3098958
v 0.2792969 0.7095 0.3098958
v 0.2792969 0.7095 -0.3098958
v 0.28125 0.7095 0.28125
v 0.2792969 0.7095 -0.3098958
v 0.28125 0.7095 -0.28125
v 0.28125 0.7095 0.28125
v 0.28125 0.7095 -0.28125
v 0.2792969 0.7095 -0.3098958
v 0.28125 0.61275 -0.28125
v 0.28125 0.61275 -0.28125
v 0.2792969 0.7095 -0.3098958
v 0.2792969 0.61275 -0.3098958
v -0.28125 0.7095 0.28125
v -0.2792969 0.7095 0.3098958
v -0.28125 0.61275 0.28125
v -0.28125 0.61275 0.28125
v -0.2792969 0.7095 0.3098958
v -0.2792969 0.61275 0.3098958
v 0.2792969 0.7095 -0.3098958
v 0.2734375 0.7095 -0.3333333
v 0.2792969 0.61275 -0.3098958
v 0.2792969 0.61275 -0.3098958
v 0.2734375 0.7095 -0.3333333
v 0.2734375 0.61275 -0.3333333
v -0.2792969 0.7095 0.3098958
v -0.2734375 0.7095 0.3333333
v -0.2792969 0.61275 0.3098958
v -0.2792969 0.61275 0.3098958
v -0.2734375 0.7095 0.3333333
v -0.2734375 0.61275 0.3333333
v 0.2734375 0.7095 -0.3333333
v 0.2636719 0.7095 -0.3515625
v 0.2734375 0.61275 -0.3333333
v 0.2734375 0.61275 -0.3333333
v 0.2636719 0.7095 -0.3515625
v 0.2636719 0.61275 -0.3515625
v -0.2734375 0.7095 0.3333333
v -0.2636719 0.7095 0.3515625
v -0.2734375 0.61275 0.3333333
v -0.2734375 0.61275 0.3333333
v -0.2636719 0.7095 0.3515625
v -0.2636719 0.61275 0.3515625
v 0.2636719 0.7095 -0.3515625
v 0.25 0.7095 -0.3645833
v 0.2636719 0.61275 -0.3515625
v 0.2636719 0.61275 -0.3515625
v 0.25 0.7095 -0.3645833
v 0.25 0.61275 -0.3645833
v -0.2636719 0.7095 0.3515625
v -0.25 0.7095 0.3645833
v -0.2636719 0.61275 0.3515625
v -0.2636719 0.61275 0.3515625
v -0.25 0.7095 0.3645833
v -0.25 0.61275 0.3645833
v 0.25 0.7095 -0.3645833
v 0.2324219 0.7095 -0.3723958
v 0.25 0.61275 -0.3645833
v 0.25 0.61275 -0.3645833
v 0.2324219 0.7095 -0.3723958
v 0.2324219 0.61275 -0.3723958
v -0.25 0.7095 0.3645833
v -0.2324219 0.7095 0.3723958
v -0.25 0.61275 0.3645833
v -0.25 0.61275 0.3645833
v -0.2324219 0.7095 0.3723958
v -0.2324219 0.61275 0.3723958
v 0.2324219 0.7095 -0.3723958
v 0.2109375 0.7095 -0.375
v 0.2324219 0.61275 -0.3723958
v 0.2324219 0.61275 -0.3723958
v 0.2109375 0.7095 -0.375
v 0.2109375 0.61275 -0.375
v -0.2324219 0.7095 0.3723958
v -0.2109375 0.7095 0.375
v -0.2324219 0.61275 0.3723958
v -0.2324219 0.61275 0.3723958
v -0.2109375 0.7095 0.375
v -0.2109375 0.61275 0.375
v 0.2109375 0.7095 -0.375
v -0.2109375 0.7095 -0.375
v 0.2109375 0.61275 -0.375
v 0.2109375 0.61275 -0.375
v -0.2109375 0.7095 -0.375
v -0.2109375 0.61275 -0.375
v -0.2109375 0.7095 0.375
v 0.2109375 0.7095 0.375
v -0.2109375 0.61275 0.375
v -0.2109375 0.61275 0.375
v 0.2109375 0.7095 0.375
v 0.2109375 0.61275 0.375
v -0.2109375 0.7095 -0.375
v -0.2324219 0.7095 -0.3723958
v -0.2109375 0.61275 -0.375
v -0.2109375 0.61275 -0.375
v -0.2324219 0.7095 -0.3723958
v -0.2324219 0.61275 -0.3723958
v 0.2109375 0.7095 0.375
v 0.2324219 0.7095 0.3723958
v 0.2109375 0.61275 0.375
v 0.2109375 0.61275 0.375
v 0.2324219 0.7095 0.3723958
v 0.2324219 0.61275 0.3723958
v -0.2324219 0.7095 -0.3723958
v -0.25 0.7095 -0.3645833
v -0.2324219 0.61275 -0.3723958
v -0.2324219 0.61275 -0.3723958
v -0.25 0.7095 -0.3645833
v -0.25 0.61275 -0.3645833
v 0.2324219 0.7095 0.3723958
v 0.25 0.7095 0.3645833
v 0.2324219 0.61275 0.3723958
v 0.2324219 0.61275 0.3723958
v 0.25 0.7095 0.3645833
v 0.25 0.61275 0.3645833
v -0.25 0.7095 -0.3645833
v -0.2636719 0.7095 -0.3515625
v -0.25 0.61275 -0.3645833
v -0.25 0.61275 -0.3645833
v -0.2636719 0.7095 -0.3515625
v -0.2636719 0.61275 -0.3515625
v 0.25 0.7095 0.3645833
v 0.2636719 0.7095 0.3515625
v 0.25 0.61275 0.3645833
v 0.25 0.61275 0.3645833
v 0.2636719 0.7095 0.3515625
v 0.2636719 0.61275 0.3515625
v -0.2636719 0.7095 -0.3515625
v -0.2734375 0.7095 -0.3333333
v -0.2636719 0.61275 -0.3515625
v -0.2636719 0.61275 -0.3515625
v -0.2734375 0.7095 -0.3333333
v -0.2734375 0.61275 -0.3333333
v 0.2636719 0.7095 0.3515625
v 0.2734375 0.7095 0.3333333
v 0.2636719 0.61275 0.3515625
v 0.2636719 0.61275 0.3515625
v 0.2734375 0.7095 0.3333333
v 0.2734375 0.61275 0.3333333
v -0.2734375 0.7095 -0.3333333
v -0.2792969 0.7095 -0.3098958
v -0.2734375 0.61275 -0.3333333
v -0.2734375 0.61275 -0.3333333
v -0.2792969 0.7095 -0.3098958
v -0.2792969 0.61275 -0.3098958
v 0.2734375 0.7095 0.3333333
v 0.2792969 0.7095 0.3098958
v 0.2734375 0.61275 0.3333333
v 0.2734375 0.61275 0.3333333
v 0.2792969 0.7095 0.3098958
v 0.2792969 0.61275 0.3098958
v -0.2792969 0.7095 -0.3098958
v -0.28125 0.7095 -0.28125
v -0.2792969 0.61275 -0.3098958
v -0.2792969 0.61275 -0.3098958
v -0.28125 0.7095 -0.28125
v -0.28125 0.61275 -0.28125
v 0.2792969 0.7095 0.3098958
v 0.28125 0.7095 0.28125
v 0.2792969 0.61275 0.3098958
v 0.2792969 0.61275 0.3098958
v 0.28125 0.7095 0.28125
v 0.28125 0.61275 0.28125
v -0.28125 0.7095 -0.28125
v -0.28125 0.7095 0.28125
v -0.28125 0.61275 -0.28125
v -0.28125 0.61275 -0.28125
v -0.28125 0.7095 0.28125
v -0.28125 0.61275 0.28125
v 0.28125 0.7095 0.28125
v 0.28125 0.7095 -0.28125
v 0.28125 0.61275 0.28125
v 0.28125 0.61275 0.28125
v 0.28125 0.7095 -0.28125
v 0.28125 0.61275 -0.28125
v -0.28125 0.61275 0.28125
v -0.2792969 0.61275 0.3098958
v -0.28125 0.61275 -0.28125
v -0.28125 0.61275 -0.28125
v -0.2792969 0.61275 0.3098958
v -0.2792969 0.61275 -0.3098958
v -0.2792969 0.61275 0.3098958
v -0.2734375 0.61275 0.3333333
v -0.2792969 0.61275 -0.3098958
v -0.2792969 0.61275 -0.3098958
v -0.2734375 0.61275 0.3333333
v -0.2734375 0.61275 -0.3333333
v -0.2734375 0.61275 0.3333333
v -0.2636719 0.61275 0.3515625
v -0.2734375 0.61275 -0.3333333
v -0.2734375 0.61275 -0.3333333
v -0.2636719 0.61275 0.3515625
v -0.2636719 0.61275 -0.3515625
v -0.2636719 0.61275 0.3515625
v -0.25 0.61275 0.3645833
v -0.2636719 0.61275 -0.3515625
v -0.2636719 0.61275 -0.3515625
v -0.25 0.61275 0.3645833
v -0.25 0.61275 -0.3645833
v -0.25 0.61275 0.3645833
v -0.2324219 0.61275 0.3723958
v -0.25 0.61275 -0.3645833
v -0.25 0.61275 -0.3645833
v -0.2324219 0.61275 0.3723958
v -0.2324219 0.61275 -0.3723958
v -0.2324219 0.61275 0.3723958
v -0.2109375 0.61275 0.375
v -0.2324219 0.61275 -0.3723958
v -0.2324219 0.61275 -0.3723958
v -0.2109375 0.61275 0.375
v -0.2109375 0.61275 -0.375
v -0.2109375 0.61275 0.375
v 0.2109375 0.61275 0.375
v -0.2109375 0.61275 -0.375
v -0.2109375 0.61275 -0.375
v 0.2109375 0.61275 0.375
v 0.2109375 0.61275 -0.375
v 0.2109375 0.61275 0.375
v 0.2324219 0.61275 0.3723958
v 0.2109375 0.61275 -0.375
v 0.2109375 0.61275 -0.375
v 0.2324219 0.61275 0.3723958
v 0.2324219 0.61275 -0.3723958
v 0.2324219 0.61275 0.3723958
v 0.25 0.61275 0.3645833
v 0.2324219 0.61275 -0.3723958
v 0.2324219 0.61275 -0.3723958
v 0.25 0.61275 0.3645833
v 0.25 0.61275 -0.3645833
v 0.25 0.61275 0.3645833
v 0.2636719 0.61275 0.3515625
v 0.25 0.61275 -0.3645833
v 0.25 0.61275 -0.3645833
v 0.2636719 0.61275 0.3515625
v 0.2636719 0.61275 -0.3515625
v 0.2636719 0.61275 0.3515625
v 0.2734375 0.61275 0.3333333
v 0.2636719 0.61275 -0.3515625
v 0.2636719 0.61275 -0.3515625
v 0.2734375 0.61275 0.3333333
v 0.2734375 0.61275 -0.3333333
v 0.2734375 0.61275 0.3333333
v 0.2792969 0.61275 0.3098958
v 0.2734375 0.61275 -0.3333333
v 0.2734375 0.61275 -0.3333333
v 0.2792969 0.61275 0.3098958
v 0.2792969 0.61275 -0.3098958
v 0.2792969 0.61275 0.3098958
v 0.28125 0.61275 0.28125
v 0.2792969 0.61275 -0.3098958
v 0.2792969 0.61275 -0.3098958
v 0.28125 0.61275 0.28125
v 0.28125 0.61275 -0.28125
vn 0 1 0
vn 0 1 0
vn 0 1 0
vn 0 1 0
vn 0 1 0
vn 0 1 0
vn 0 1 0
vn 0 1 0
vn 0 1 0
vn 0 1 0
vn 0 1 0
vn 0 1 0
vn 0 1 0
vn 0 1 0
vn 0 1 0
vn 0 1 0
vn 0 1 0
vn 0 1 0
vn 0 1 0
vn 0 1 0
vn 0 0.9999999 0
vn 0 1 0
vn 0 1 0
vn 0 0.9999999 0
vn 0 0.9999999 0
vn 0 1 0
vn 0 1 0
vn 0 1 0
vn 0 1 0
vn 0 1 0
vn 0 1 0
vn 0 1 0
vn 0 1 0
vn 0 1 0
vn 0 1 0
vn 0 1 0
vn 0 1 0
vn 0 1 0
vn 0 1 0
vn 0 1 0
vn 0 1 0
vn 0 1 0
vn 0 1 0
vn 0 1 0
vn 0 0.9999999 0
vn 0 1 0
vn 0 1 0
vn 0 0.9999999 0
vn 0 0.9999999 0
vn 0 1 0
vn 0 1 0
vn 0 1 0
vn 0 1 0
vn 0 1 0
vn 0 1 0
vn 0 1 0
vn 0 1 0
vn 0 1 0
vn 0 1 0
vn 0 1 0
vn 0 1 0
vn 0 1 0
vn 0 0.9999999 0
vn 0 1 0
vn 0 1 0
vn 0 0.9999999 0
vn 0 0.9999999 0
vn 0 1 0
vn 0 1 0
vn 0 1 0
vn 0 1 0
vn 0 1 0
vn 0 1 0
vn 0 1 0
vn 0 1 0
vn 0 1 0
vn 0 1 0
vn 0 1 0
vn 0.9999986 0 -0.001692994
vn 0.9927627 0 -0.1200921
vn 0.9999802 0 -0.006302373
vn 0.9999802 0 -0.006302373
vn 0.9927627 0 -0.1200921
vn 0.9840053 0 -0.1781387
vn -0.9976837 0 0.06802363
vn -0.9927628 0 0.1200921
vn -0.9976837 0 0.06802363
vn -0.9976837 0 0.06802363
vn -0.9927628 0 0.1200921
vn -0.9840054 0 0.1781388
vn 0.9927627 0 -0.1200921
vn 0.9496287 0 -0.3133774
vn 0.9840053 0 -0.1781387
vn 0.9840053 0 -0.1781387
vn 0.9496287 0 -0.3133774
vn 0.9206907 0 -0.3902929
vn -0.9927628 0 0.1200921
vn -0.9496286 0 0.3133776
vn -0.9840054 0 0.1781388
vn -0.9840054 0 0.1781388
vn -0.9496286 0 0.3133776
vn -0.9206907 0 0.3902931
vn 0.9496287 0 -0.3133774
vn 0.8303655 0 -0.5572191
vn 0.9206907 0 -0.3902929
vn 0.9206907 0 -0.3902929
vn 0.8303655 0 -0.5572191
vn 0.7663705 0 -0.6423988
vn -0.9496286 0 0.3133776
vn -0.8303655 0 0.5572191
vn -0.9206907 0 0.3902931
vn -0.9206907 0 0.3902931
vn -0.8303655 0 0.5572191
vn -0.7663705 0 0.6423988
vn 0.8303655 0 -0.5572191
vn 0.6018505 0 -0.7986088
vn 0.7663705 0 -0.6423988
vn 0.7663705 0 -0.6423988
vn 0.6018505 0 -0.7986088
vn 0.506015 0 -0.8625246
vn -0.8303655 0 0.5572191
vn -0.6018503 0 0.798609
vn -0.7663705 0 0.6423988
vn -0.7663705 0 0.6423988
vn -0.6018503 0 0.798609
vn -0.5060147 0 0.8625249
vn 0.6018505 0 -0.7986088
vn 0.3063636 0 -0.9519147
vn 0.506015 0 -0.8625246
vn 0.506015 0 -0.8625246
vn 0.3063636 0 -0.9519147
vn 0.2102468 0 -0.9776483
vn -0.6018503 0 0.798609
vn -0.3063635 0 0.9519147
vn -0.5060147 0 0.8625249
vn -0.5060147 0 0.8625249
vn -0.3063635 0 0.9519147
vn -0.2102469 0 0.9776484
vn 0.3063636 0 -0.9519147
vn 0.01120373 0 -0.9999372
vn 0.2102468 0 -0.9776483
vn 0.2102468 0 -0.9776483
vn 0.01120373 0 -0.9999372
vn 0.003009757 0 -0.9999955
vn -0.3063635 0 0.9519147
vn -0.01120374 0 0.9999372
vn -0.2102469 0 0.9776484
vn -0.2102469 0 0.9776484
vn -0.01120374 0 0.9999372
vn -0.003009757 0 0.9999955
vn 0.01120373 0 -0.9999372
vn -0.003009757 0 -0.9999955
vn 0.003009757 0 -0.9999955
vn 0.003009757 0 -0.9999955
vn -0.003009757 0 -0.9999955
vn -0.01120374 0 -0.9999372
vn -0.01120374 0 0.9999372
vn 0.003009757 0 0.9999955
vn -0.003009757 0 0.9999955
vn -0.003009757 0 0.9999955
vn 0.003009757 0 0.9999955
vn 0.01120373 0 0.9999372
vn -0.003009757 0 -0.9999955
vn -0.2102469 0 -0.9776484
vn -0.01120374 0 -0.9999372
vn -0.01120374 0 -0.9999372
vn -0.2102469 0 -0.9776484
vn -0.3063635 0 -0.9519147
vn 0.003009757 0 0.9999955
vn 0.2102468 0 0.9776484
vn 0.01120373 0 0.9999372
vn 0.01120373 0 0.9999372
vn 0.2102468 0 0.9776484
vn 0.3063636 0 0.9519147
vn -0.2102469 0 -0.9776484
vn -0.5060146 0 -0.8625249
vn -0.3063635 0 -0.9519147
vn -0.3063635 0 -0.9519147
vn -0.5060146 0 -0.8625249
vn -0.6018503 0 -0.798609
vn 0.2102468 0 0.9776484
vn 0.506015 0 0.8625247
vn 0.3063636 0 0.9519147
vn 0.3063636 0 0.9519147
vn 0.506015 0 0.8625247
vn 0.6018505 0 0.7986088
vn -0.5060146 0 -0.8625249
vn -0.7663705 0 -0.6423988
vn -0.6018503 0 -0.798609
vn -0.6018503 0 -0.798609
vn -0.7663705 0 -0.6423988
vn -0.8303655 0 -0.5572191
vn 0.506015 0 0.8625247
vn 0.7663705 0 0.6423988
vn 0.6018505 0 0.7986088
vn 0.6018505 0 0.7986088
vn 0.7663705 0 0.6423988
vn 0.8303655 0 0.5572191
vn -0.7663705 0 -0.6423988
vn -0.9206907 0 -0.3902931
vn -0.8303655 0 -0.5572191
vn -0.8303655 0 -0.5572191
vn -0.9206907 0 -0.3902931
vn -0.9496286 0 -0.3133776
vn 0.7663705 0 0.6423988
vn 0.9206907 0 0.3902929
vn 0.8303655 0 0.5572191
vn 0.8303655 0 0.5572191
vn 0.9206907 0 0.3902929
vn 0.9496287 0 0.3133774
vn -0.9206907 0 -0.3902931
vn -0.9840054 0 -0.1781388
vn -0.9496286 0 -0.3133776
vn -0.9496286 0 -0.3133776
vn -0.9840054 0 -0.1781388
vn -0.9927628 0 -0.1200921
vn 0.9206907 0 0.3902929
vn 0.9840053 0 0.1781387
vn 0.9496287 0 0.3133774
vn 0.9496287 0 0.3133774
vn 0.9840053 0 0.1781387
vn 0.9927627 0 0.1200921
vn -0.9840054 0 -0.1781388
vn -0.9999802 0 -0.006302372
vn -0.9927628 0 -0.1200921
vn -0.9927628 0 -0.1200921
vn -0.9999802 0 -0.006302372
vn -0.9999986 0 -0.001692994
vn 0.9840053 0 0.1781387
vn 0.9999802 0 0.006302373
vn 0.9927627 0 0.1200921
vn 0.9927627 0 0.1200921
vn 0.9999802 0 0.006302373
vn 0.9999986 0 0.001692994
vn -0.9999802 0 -0.006302372
vn -1 0 0
vn -0.9999986 0 -0.001692994
vn -0.9999986 0 -0.001692994
vn -1 0 0
vn -1 0 0
vn 0.9999802 0 0.006302373
vn 0.9999986 0 -0.001692994
vn 0.9999986 0 0.001692994
vn 0.9999986 0 0.001692994
vn 0.9999986 0 -0.001692994
vn 0.9999802 0 -0.006302373
vn 0 -1 0
vn 0 -1 0
vn 0 -1 0
vn 0 -1 0
vn 0 -1 0
vn 0 -1 0
vn 0 -1 0
vn 0 -1 0
vn 0 -1 0
vn 0 -1 0
vn 0 -1 0
vn 0 -1 0
vn 0 -1 0
vn 0 -1 0
vn 0 -1 0
vn 0 -1 0
vn 0 -1 0
vn 0 -1 0
vn 0 -1 0
vn 0 -0.9999999 0
vn 0 -1 0
vn 0 -1 0
vn 0 -0.9999999 0
vn 0 -1 0
vn 0 -0.9999999 0
vn 0 -1 0
vn 0 -1 0
vn 0 -1 0
vn 0 -1 0
vn 0 -1 0
vn 0 -1 0
vn 0 -1 0
vn 0 -1 0
vn 0 -1 0
vn 0 -1 0
vn 0 -1 0
vn 0 -1 0
vn 0 -1 0
vn 0 -1 0
vn 0 -1 0
vn 0 -1 0
vn 0 -1 0
vn 0 -1 0
vn 0 -0.9999999 0
vn 0 -1 0
vn 0 -1 0
vn 0 -0.9999999 0
vn 0 -1 0
vn 0 -0.9999999 0
vn 0 -1 0
vn 0 -1 0
vn 0 -1 0
vn 0 -1 0
vn 0 -1 0
vn 0 -1 0
vn 0 -1 0
vn 0 -1 0
vn 0 -1 0
vn 0 -1 0
vn 0 -1 0
vn 0 -1 0
vn 0 -0.9999999 0
vn 0 -1 0
vn 0 -1 0
vn 0 -0.9999999 0
vn 0 -1 0
vn 0 -0.9999999 0
vn 0 -1 0
vn 0 -1 0
vn 0 -1 0
vn 0 -1 0
vn 0 -1 0
vn 0 -1 0
vn 0 -1 0
vn 0 -1 0
vn 0 -1 0
vn 0 -1 0
vn 0 -1 0
vn 0 1 0
vn 0 1 0
vn 0 1 0
vn 0 1 0
vn 0 1 0
vn 0 1 0
vn 0 1 0
vn 0 1 0
vn 0 1 0
vn 0 1 0
vn 0 1 0
vn 0 1 0
vn 0 1 0
vn 0 1 0
vn 0 0.9999999 0
vn 0 1 0
vn 0 1 0
vn 0 0.9999999 0
vn 0 0.9999999 0
vn 0 1 0
vn 0 1 0
vn 0 1 0
vn 0 1 0
vn 0 1 0
vn 0 1 0
vn 0 1 0
vn 0 1 0
vn 0 1 0
vn 0 1 0
vn 0 1 0
vn 0 1 0
vn 0 1 0
vn 0 1 0
vn 0 1 0
vn 0 1 0
vn 0 1 0
vn 0 1 0
vn 0 1 0
vn 0 1 0
vn 0 1 0
vn 0 1 0
vn 0 1 0
vn 0 1 0
vn 0 1 0
vn 0 1 0
vn 0 1 0
vn 0 1 0
vn 0 1 0
vn 0 1 0
vn 0 1 0
vn 0 1 0
vn 0 1 0
vn 0 1 0
vn 0 1 0
vn 0 1 0
vn 0 1 0
vn 0 1 0
vn 0 1 0
vn 0 0.9999999 0
vn 0 1 0
vn 0 1 0
vn 0 0.9999999 0
vn 0 1 0
vn 0 0.9999999 0
vn 0 1 0
vn 0 1 0
vn 0 1 0
vn 0 1 0
vn 0 1 0
vn 0 1 0
vn 0 1 0
vn 0 1 0
vn 0 1 0
vn 0 1 0
vn 0 1 0
vn 0 1 0
vn 0 1 0
vn 0 1 0
vn 0.9999985 0 -0.001693
vn 0.9927627 0 -0.1200923
vn 0.9999802 0 -0.006302397
vn 0.9999802 0 -0.006302397
vn 0.9927627 0 -0.1200923
vn 0.9840054 0 -0.1781388
vn -0.9976837 0 0.06802387
vn -0.9927627 0 0.1200922
vn -0.9976837 0 0.06802387
vn -0.9976837 0 0.06802387
vn -0.9927627 0 0.1200922
vn -0.9840053 0 0.1781389
vn 0.9927627 0 -0.1200923
vn 0.9496287 0 -0.3133773
vn 0.9840054 0 -0.1781388
vn 0.9840054 0 -0.1781388
vn 0.9496287 0 -0.3133773
vn 0.9206907 0 -0.3902927
vn -0.9927627 0 0.1200922
vn -0.9496287 0 0.3133775
vn -0.9840053 0 0.1781389
vn -0.9840053 0 0.1781389
vn -0.9496287 0 0.3133775
vn -0.9206907 0 0.3902929
vn 0.9496287 0 -0.3133773
vn 0.8303655 0 -0.5572191
vn 0.9206907 0 -0.3902927
vn 0.9206907 0 -0.3902927
vn 0.8303655 0 -0.5572191
vn 0.7663705 0 -0.6423987
vn -0.9496287 0 0.3133775
vn -0.8303655 0 0.5572191
vn -0.9206907 0 0.3902929
vn -0.9206907 0 0.3902929
vn -0.8303655 0 0.5572191
vn -0.7663705 0 0.6423987
vn 0.8303655 0 -0.5572191
vn 0.6018505 0 -0.7986088
vn 0.7663705 0 -0.6423987
vn 0.7663705 0 -0.6423987
vn 0.6018505 0 -0.7986088
vn 0.5060148 0 -0.8625248
vn -0.8303655 0 0.5572191
vn -0.6018505 0 0.7986088
vn -0.7663705 0 0.6423987
vn -0.7663705 0 0.6423987
vn -0.6018505 0 0.7986088
vn -0.5060148 0 0.8625248
vn 0.6018505 0 -0.7986088
vn 0.3063632 0 -0.9519148
vn 0.5060148 0 -0.8625248
vn 0.5060148 0 -0.8625248
vn 0.3063632 0 -0.9519148
vn 0.2102467 0 -0.9776484
vn -0.6018505 0 0.7986088
vn -0.3063632 0 0.9519148
vn -0.5060148 0 0.8625248
vn -0.5060148 0 0.8625248
vn -0.3063632 0 0.9519148
vn -0.2102467 0 0.9776484
vn 0.3063632 0 -0.9519148
vn 0.01120374 0 -0.9999373
vn 0.2102467 0 -0.9776484
vn 0.2102467 0 -0.9776484
vn 0.01120374 0 -0.9999373
vn 0.003009757 0 -0.9999955
vn -0.3063632 0 0.9519148
vn -0.01120374 0 0.9999373
vn -0.2102467 0 0.9776484
vn -0.2102467 0 0.9776484
vn -0.01120374 0 0.9999373
vn -0.003009757 0 0.9999955
vn 0.01120374 0 -0.9999373
vn -0.003009757 0 -0.9999955
vn 0.003009757 0 -0.9999955
vn 0.003009757 0 -0.9999955
vn -0.003009757 0 -0.9999955
vn -0.01120374 0 -0.9999373
vn -0.01120374 0 0.9999373
vn 0.003009757 0 0.9999955
vn -0.003009757 0 0.9999955
vn -0.003009757 0 0.9999955
vn 0.003009757 0 0.9999955
vn 0.01120374 0 0.9999373
vn -0.003009757 0 -0.9999955
vn -0.2102467 0 -0.9776484
vn -0.01120374 0 -0.9999373
vn -0.01120374 0 -0.9999373
vn -0.2102467 0 -0.9776484
vn -0.3063632 0 -0.9519148
vn 0.003009757 0 0.9999955
vn 0.2102467 0 0.9776484
vn 0.01120374 0 0.9999373
vn 0.01120374 0 0.9999373
vn 0.2102467 0 0.9776484
vn 0.3063632 0 0.9519148
vn -0.2102467 0 -0.9776484
vn -0.5060148 0 -0.8625248
vn -0.3063632 0 -0.9519148
vn -0.3063632 0 -0.9519148
vn -0.5060148 0 -0.8625248
vn -0.6018505 0 -0.7986088
vn 0.2102467 0 0.9776484
vn 0.5060148 0 0.8625248
vn 0.3063632 0 0.9519148
vn 0.3063632 0 0.9519148
vn 0.5060148 0 0.8625248
vn 0.6018505 0 0.7986088
vn -0.5060148 0 -0.8625248
vn -0.7663705 0 -0.6423987
vn -0.6018505 0 -0.7986088
vn -0.6018505 0 -0.7986088
vn -0.7663705 0 -0.6423987
vn -0.8303655 0 -0.5572191
vn 0.5060148 0 0.8625248
vn 0.7663705 0 0.6423987
vn 0.6018505 0 0.7986088
vn 0.6018505 0 0.7986088
vn 0.7663705 0 0.6423987
vn 0.8303655 0 0.5572191
vn -0.7663705 0 -0.6423987
vn -0.9206907 0 -0.3902929
vn -0.8303655 0 -0.5572191
vn -0.8303655 0 -0.5572191
vn -0.9206907 0 -0.3902929
vn -0.9496287 0 -0.3133775
vn 0.7663705 0 0.6423987
vn 0.9206907 0 0.3902927
vn 0.8303655 0 0.5572191
vn 0.8303655 0 0.5572191
vn 0.9206907 0 0.3902927
vn 0.9496287 0 0.3133773
vn -0.9206907 0 -0.3902929
vn -0.9840053 0 -0.1781389
vn -0.9496287 0 -0.3133775
vn -0.9496287 0 -0.3133775
vn -0.9840053 0 -0.1781389
vn -0.9927627 0 -0.1200922
vn 0.9206907 0 0.3902927
vn 0.9840055 0 0.1781388
vn 0.9496287 0 0.3133773
vn 0.9496287 0 0.3133773
vn 0.9840055 0 0.1781388
vn 0.9927627 0 0.1200923
vn -0.9840053 0 -0.1781389
vn -0.9999801 0 -0.006302395
vn -0.9927627 0 -0.1200922
vn -0.9927627 0 -0.1200922
vn -0.9999801 0 -0.006302395
vn -0.9999986 0 -0.001693
vn 0.9840055 0 0.1781388
vn 0.9999802 0 0.006302397
vn 0.9927627 0 0.1200923
vn 0.9927627 0 0.1200923
vn 0.9999802 0 0.006302397
vn 0.9999985 0 0.001693
vn -0.9999801 0 -0.006302395
vn -1 0 0
vn -0.9999986 0 -0.001693
vn -0.9999986 0 -0.001693
vn -1 0 0
vn -1 0 0
vn 0.9999802 0 0.006302397
vn 0.9999985 0 -0.001693
vn 0.9999985 0 0.001693
vn 0.9999985 0 0.001693
vn 0.9999985 0 -0.001693
vn 0.9999802 0 -0.006302397
vn 0 -1 0
vn 0 -1 0
vn 0 -1 0
vn 0 -1 0
vn 0 -1 0
vn 0 -1 0
vn 0 -1 0
vn 0 -1 0
vn 0 -1 0
vn 0 -1 0
vn 0 -1 0
vn 0 -1 0
vn 0 -1 0
vn 0 -0.9999999 0
vn 0 -1 0
vn 0 -1 0
vn 0 -0.9999999 0
vn 0 -1 0
vn 0 -0.9999999 0
vn 0 -1 0
vn 0 -1 0
vn 0 -1 0
vn 0 -1 0
vn 0 -1 0
vn 0 -1 0
vn 0 -1 0
vn 0 -1 0
vn 0 -1 0
vn 0 -1 0
vn 0 -1 0
vn 0 -1 0
vn 0 -1 0
vn 0 -1 0
vn 0 -1 0
vn 0 -1 0
vn 0 -1 0
vn 0 -1 0
vn 0 -1 0
vn 0 -1 0
vn 0 -1 0
vn 0 -1 0
vn 0 -1 0
vn 0 -1 0
vn 0 -1 0
vn 0 -1 0
vn 0 -1 0
vn 0 -1 0
vn 0 -1 0
vn 0 -1 0
vn 0 -1 0
vn 0 -1 0
vn 0 -1 0
vn 0 -1 0
vn 0 -1 0
vn 0 -1 0
vn 0 -1 0
vn 0 -1 0
vn 0 -1 0
vn 0 -1 0
vn 0 -0.9999999 0
vn 0 -1 0
vn 0 -1 0
vn 0 -0.9999999 0
vn 0 -0.9999999 0
vn 0 -1 0
vn 0 -1 0
vn 0 -1 0
vn 0 -1 0
vn 0 -1 0
vn 0 -1 0
vn 0 -1 0
vn 0 -1 0
vn 0 -1 0
vn 0 -1 0
vn 0 -1 0
vn 0 -1 0
vn 0 -1 0
vn 0 -1 0
vn 0 -1 0
vn 0 -1 0
vn 0 -1 0
vn 0 -1 0
vn 0 -1 0
vn 0 -1 0
vn 0 1 0
vn 0 1 0
vn 0 1 0
vn 0 1 0
vn 0 1 0
vn 0 1 0
vn -1 0 0
vn -1 0 0
vn -1 0 0
vn -1 0 0
vn -1 0 0
vn -1 0 0
vn 1 0 0
vn 1 0 0
vn 1 0 0
vn 1 0 0
vn 1 0 0
vn 1 0 0
vn 0 0 1
vn 0 0 1
vn 0 0 1
vn 0 0 1
vn 0 0 1
vn 0 0 1
vn 0 0 -1
vn 0 0 -1
vn 0 0 -1
vn 0 0 -1
vn 0 0 -1
vn 0 0 -1
vn 0 1 0
vn 0 1 0
vn 0 1 0
vn 0 1 0
vn 0 1 0
vn 0 1 0
vn 0 1 0
vn 0 1 0
vn 0 1 0
vn 0 1 0
vn 0 1 0
vn 0 1 0
vn 0 1 0
vn 0 1 0
vn 0 0.9999999 0
vn 0 1 0
vn 0 1 0
vn 0 0.9999999 0
vn 0 0.9999999 0
vn 0 1 0
vn 0 1 0
vn 0 1 0
vn 0 1 0
vn 0 1 0
vn 0 1 0
vn 0 1 0
vn 0 1 0
vn 0 1 0
vn 0 1 0
vn 0 1 0
vn 0 1 0
vn 0 1 0
vn 0 1 0
vn 0 1 0
vn 0 1 0
vn 0 1 0
vn 0 1 0
vn 0 1 0
vn 0 1 0
vn 0 1 0
vn 0 1 0
vn 0 1 0
vn 0 1 0
vn 0 1 0
vn 0 1 0
vn 0 1 0
vn 0 1 0
vn 0 1 0
vn 0 1 0
vn 0 1 0
vn 0 1 0
vn 0 1 0
vn 0 1 0
vn 0 1 0
vn 0 1 0
vn 0 1 0
vn 0 1 0
vn 0 1 0
vn 0 0.9999999 0
vn 0 1 0
vn 0 1 0
vn 0 0.9999999 0
vn 0 1 0
vn 0 0.9999999 0
vn 0 1 0
vn 0 1 0
vn 0 1 0
vn 0 1 0
vn 0 1 0
vn 0 1 0
vn 0 1 0
vn 0 1 0
vn 0 1 0
vn 0 1 0
vn 0 1 0
vn 0 1 0
vn 0 1 0
vn 0 1 0
vn 0.9999986 0 -0.001693
vn 0.9927627 0 -0.1200923
vn 0.9999802 0 -0.006302396
vn 0.9999802 0 -0.006302396
vn 0.9927627 0 -0.1200923
vn 0.9840053 0 -0.1781388
vn -0.9976837 0 0.06802387
vn -0.9927627 0 0.1200922
vn -0.9976837 0 0.06802387
vn -0.9976837 0 0.06802387
vn -0.9927627 0 0.1200922
vn -0.9840053 0 0.1781389
vn 0.9927627 0 -0.1200923
vn 0.9496287 0 -0.3133772
vn 0.9840053 0 -0.1781388
vn 0.9840053 0 -0.1781388
vn 0.9496287 0 -0.3133772
vn 0.9206908 0 -0.3902928
vn -0.9927627 0 0.1200922
vn -0.9496287 0 0.3133775
vn -0.9840053 0 0.1781389
vn -0.9840053 0 0.1781389
vn -0.9496287 0 0.3133775
vn -0.9206908 0 0.390293
vn 0.9496287 0 -0.3133772
vn 0.8303655 0 -0.5572191
vn 0.9206908 0 -0.3902928
vn 0.9206908 0 -0.3902928
vn 0.8303655 0 -0.5572191
vn 0.7663706 0 -0.6423987
vn -0.9496287 0 0.3133775
vn -0.8303655 0 0.5572191
vn -0.9206908 0 0.390293
vn -0.9206908 0 0.390293
vn -0.8303655 0 0.5572191
vn -0.7663706 0 0.6423987
vn 0.8303655 0 -0.5572191
vn 0.6018505 0 -0.7986087
vn 0.7663706 0 -0.6423987
vn 0.7663706 0 -0.6423987
vn 0.6018505 0 -0.7986087
vn 0.5060147 0 -0.8625248
vn -0.8303655 0 0.5572191
vn -0.6018505 0 0.7986087
vn -0.7663706 0 0.6423987
vn -0.7663706 0 0.6423987
vn -0.6018505 0 0.7986087
vn -0.5060147 0 0.8625248
vn 0.6018505 0 -0.7986087
vn 0.3063632 0 -0.9519148
vn 0.5060147 0 -0.8625248
vn 0.5060147 0 -0.8625248
vn 0.3063632 0 -0.9519148
vn 0.2102466 0 -0.9776484
vn -0.6018505 0 0.7986087
vn -0.3063632 0 0.9519148
vn -0.5060147 0 0.8625248
vn -0.5060147 0 0.8625248
vn -0.3063632 0 0.9519148
vn -0.2102466 0 0.9776484
vn 0.3063632 0 -0.9519148
vn 0.01120374 0 -0.9999372
vn 0.2102466 0 -0.9776484
vn 0.2102466 0 -0.9776484
vn 0.01120374 0 -0.9999372
vn 0.003009757 0 -0.9999954
vn -0.3063632 0 0.9519148
vn -0.01120374 0 0.9999372
vn -0.2102466 0 0.9776484
vn -0.2102466 0 0.9776484
vn -0.01120374 0 0.9999372
vn -0.003009757 0 0.9999954
vn 0.01120374 0 -0.9999372
vn -0.003009757 0 -0.9999954
vn 0.003009757 0 -0.9999954
vn 0.003009757 0 -0.9999954
vn -0.003009757 0 -0.9999954
vn -0.01120374 0 -0.9999372
vn -0.01120374 0 0.9999372
vn 0.003009757 0 0.9999954
vn -0.003009757 0 0.9999954
vn -0.003009757 0 0.9999954
vn 0.003009757 0 0.9999954
vn 0.01120374 0 0.9999372
vn -0.003009757 0 -0.9999954
vn -0.2102467 0 -0.9776484
vn -0.01120374 0 -0.9999372
vn -0.01120374 0 -0.9999372
vn -0.2102467 0 -0.9776484
vn -0.3063632 0 -0.9519148
vn 0.003009757 0 0.9999954
vn 0.2102467 0 0.9776484
vn 0.01120374 0 0.9999372
vn 0.01120374 0 0.9999372
vn 0.2102467 0 0.9776484
vn 0.3063632 0 0.9519148
vn -0.2102467 0 -0.9776484
vn -0.5060147 0 -0.8625248
vn -0.3063632 0 -0.9519148
vn -0.3063632 0 -0.9519148
vn -0.5060147 0 -0.8625248
vn -0.6018505 0 -0.7986087
vn 0.2102467 0 0.9776484
vn 0.5060147 0 0.8625248
vn 0.3063632 0 0.9519148
vn 0.3063632 0 0.9519148
vn 0.5060147 0 0.8625248
vn 0.6018505 0 0.7986087
vn -0.5060147 0 -0.8625248
vn -0.7663706 0 -0.6423987
vn -0.6018505 0 -0.7986087
vn -0.6018505 0 -0.7986087
vn -0.7663706 0 -0.6423987
vn -0.8303655 0 -0.5572191
vn 0.5060147 0 0.8625248
vn 0.7663706 0 0.6423987
vn 0.6018505 0 0.7986087
vn 0.6018505 0 0.7986087
vn 0.7663706 0 0.6423987
vn 0.8303655 0 0.5572191
vn -0.7663706 0 -0.6423987
vn -0.9206908 0 -0.390293
vn -0.8303655 0 -0.5572191
vn -0.8303655 0 -0.5572191
vn -0.9206908 0 -0.390293
vn -0.9496287 0 -0.3133775
vn 0.7663706 0 0.6423987
vn 0.9206908 0 0.3902928
vn 0.8303655 0 0.5572191
vn 0.8303655 0 0.5572191
vn 0.9206908 0 0.3902928
vn 0.9496288 0 0.3133773
vn -0.9206908 0 -0.390293
vn -0.9840053 0 -0.1781389
vn -0.9496287 0 -0.3133775
vn -0.9496287 0 -0.3133775
vn -0.9840053 0 -0.1781389
vn -0.9927627 0 -0.1200922
vn 0.9206908 0 0.3902928
vn 0.9840053 0 0.1781388
vn 0.9496288 0 0.3133773
vn 0.9496288 0 0.3133773
vn 0.9840053 0 0.1781388
vn 0.9927627 0 0.1200923
vn -0.9840053 0 -0.1781389
vn -0.9999802 0 -0.006302395
vn -0.9927627 0 -0.1200922
vn -0.9927627 0 -0.1200922
vn -0.9999802 0 -0.006302395
vn -0.9999986 0 -0.001693
vn 0.9840053 0 0.1781388
vn 0.9999802 0 0.006302396
vn 0.9927627 0 0.1200923
vn 0.9927627 0 0.1200923
vn 0.9999802 0 0.006302396
vn 0.9999986 0 0.001693
vn -0.9999802 0 -0.006302395
vn -1 0 0
vn -0.9999986 0 -0.001693
vn -0.9999986 0 -0.001693
vn -1 0 0
vn -1 0 0
vn 0.9999802 0 0.006302396
vn 0.9999986 0 -0.001693
vn 0.9999986 0 0.001693
vn 0.9999986 0 0.001693
vn 0.9999986 0 -0.001693
vn 0.9999802 0 -0.006302396
vn 0 -1 0
vn 0 -1 0
vn 0 -1 0
vn 0 -1 0
vn 0 -1 0
vn 0 -1 0
vn 0 -1 0
vn 0 -1 0
vn 0 -1 0
vn 0 -1 0
vn 0 -1 0
vn 0 -1 0
vn 0 -1 0
vn 0 -0.9999999 0
vn 0 -1 0
vn 0 -1 0
vn 0 -0.9999999 0
vn 0 -1 0
vn 0 -0.9999999 0
vn 0 -1 0
vn 0 -1 0
vn 0 -1 0
vn 0 -1 0
vn 0 -1 0
vn 0 -1 0
vn 0 -1 0
vn 0 -1 0
vn 0 -1 0
vn 0 -1 0
vn 0 -1 0
vn 0 -1 0
vn 0 -1 0
vn 0 -1 0
vn 0 -1 0
vn 0 -1 0
vn 0 -1 0
vn 0 -1 0
vn 0 -1 0
vn 0 -1 0
vn 0 -1 0
vn 0 -1 0
vn 0 -1 0
vn 0 -1 0
vn 0 -1 0
vn 0 -1 0
vn 0 -1 0
vn 0 -1 0
vn 0 -1 0
vn 0 -1 0
vn 0 -1 0
vn 0 -1 0
vn 0 -1 0
vn 0 -1 0
vn 0 -1 0
vn 0 -1 0
vn 0 -1 0
vn 0 -1 0
vn 0 -1 0
vn 0 -1 0
vn 0 -0.9999999 0
vn 0 -1 0
vn 0 -1 0
vn 0 -0.9999999 0
vn 0 -0.9999999 0
vn 0 -1 0
vn 0 -1 0
vn 0 -1 0
vn 0 -1 0
vn 0 -1 0
vn 0 -1 0
vn 0 -1 0
vn 0 -1 0
vn 0 -1 0
vn 0 -1 0
vn 0 -1 0
vn 0 -1 0
vn 0 -1 0
vn 0 -1 0
vt 0.1013542 0.04069168
vt 0.04069168 0.04069168
vt 0.1044435 0.04090231
vt 0.04069168 0.04069168
vt 0.03760238 0.04090231
vt 0.1044435 0.04090231
vt 0.1044435 0.04090231
vt 0.03760238 0.04090231
vt 0.1069711 0.04153421
vt 0.03760238 0.04090231
vt 0.03507478 0.04153421
vt 0.1069711 0.04153421
vt 0.1069711 0.04153421
vt 0.03507478 0.04153421
vt 0.108937 0.04258739
vt 0.03507478 0.04153421
vt 0.03310886 0.04258739
vt 0.108937 0.04258739
vt 0.108937 0.04258739
vt 0.03310886 0.04258739
vt 0.1103413 0.04406182
vt 0.03310886 0.04258739
vt 0.03170464 0.04406182
vt 0.1103413 0.04406182
vt 0.1103413 0.04406182
vt 0.03170464 0.04406182
vt 0.1111838 0.04595753
vt 0.03170464 0.04406182
vt 0.0308621 0.04595753
vt 0.1111838 0.04595753
vt 0.1111838 0.04595753
vt 0.0308621 0.04595753
vt 0.1114646 0.0482745
vt 0.0308621 0.04595753
vt 0.03058126 0.0482745
vt 0.1114646 0.0482745
vt 0.1114646 0.0482745
vt 0.03058126 0.0482745
vt 0.1114646 0.09377139
vt 0.03058126 0.0482745
vt 0.03058126 0.09377139
vt 0.1114646 0.09377139
vt 0.1114646 0.09377139
vt 0.03058126 0.09377139
vt 0.1111838 0.09608835
vt 0.03058126 0.09377139
vt 0.0308621 0.09608835
vt 0.1111838 0.09608835
vt 0.1111838 0.09608835
vt 0.0308621 0.09608835
vt 0.1103413 0.09798406
vt 0.0308621 0.09608835
vt 0.03170464 0.09798406
vt 0.1103413 0.09798406
vt 0.1103413 0.09798406
vt 0.03170464 0.09798406
vt 0.108937 0.09945849
vt 0.03170464 0.09798406
vt 0.03310886 0.09945849
vt 0.108937 0.09945849
vt 0.108937 0.09945849
vt 0.03310886 0.09945849
vt 0.1069711 0.1005117
vt 0.03310886 0.09945849
vt 0.03507478 0.1005117
vt 0.1069711 0.1005117
vt 0.1069711 0.1005117
vt 0.03507478 0.1005117
vt 0.1044435 0.1011436
vt 0.03507478 0.1005117
vt 0.03760238 0.1011436
vt 0.1044435 0.1011436
vt 0.1044435 0.1011436
vt 0.03760238 0.1011436
vt 0.1013542 0.1013542
vt 0.03760238 0.1011436
vt 0.04069168 0.1013542
vt 0.1013542 0.1013542
vt 0.1417959 0.2164816
vt 0.1450446 0.2164816
vt 0.1417959 0.2086561
vt 0.1417959 0.2086561
vt 0.1450446 0.2164816
vt 0.1450446 0.2086561
vt 0.00025 0.2164816
vt 0.003498709 0.2164816
vt 0.00025 0.2086561
vt 0.00025 0.2086561
vt 0.003498709 0.2164816
vt 0.003498709 0.2086561
vt 0.1450446 0.2164816
vt 0.1477781 0.2164816
vt 0.1450446 0.2086561
vt 0.1450446 0.2086561
vt 0.1477781 0.2164816
vt 0.1477781 0.2086561
vt 0.003498709 0.2164816
vt 0.006232203 0.2164816
vt 0.003498709 0.2086561
vt 0.003498709 0.2086561
vt 0.006232203 0.2164816
vt 0.006232203 0.2086561
vt 0.1477781 0.2164816
vt 0.150118 0.2164816
vt 0.1477781 0.2086561
vt 0.1477781 0.2086561
vt 0.150118 0.2164816
vt 0.150118 0.2086561
vt 0.006232203 0.2164816
vt 0.008572098 0.2164816
vt 0.006232203 0.2086561
vt 0.006232203 0.2086561
vt 0.008572098 0.2164816
vt 0.008572098 0.2086561
vt 0.150118 0.2164816
vt 0.1522542 0.2164816
vt 0.150118 0.2086561
vt 0.150118 0.2086561
vt 0.1522542 0.2164816
vt 0.1522542 0.2086561
vt 0.008572098 0.2164816
vt 0.01070833 0.2164816
vt 0.008572098 0.2086561
vt 0.008572098 0.2086561
vt 0.01070833 0.2164816
vt 0.01070833 0.2086561
vt 0.1522542 0.2164816
vt 0.1544307 0.2164816
vt 0.1522542 0.2086561
vt 0.1522542 0.2086561
vt 0.1544307 0.2164816
vt 0.1544307 0.2086561
vt 0.01070833 0.2164816
vt 0.01288483 0.2164816
vt 0.01070833 0.2086561
vt 0.01070833 0.2086561
vt 0.01288483 0.2164816
vt 0.01288483 0.2086561
vt 0.1544307 0.2164816
vt 0.1568794 0.2164816
vt 0.1544307 0.2086561
vt 0.1544307 0.2086561
vt 0.1568794 0.2164816
vt 0.1568794 0.2086561
vt 0.01288483 0.2164816
vt 0.01533351 0.2164816
vt 0.01288483 0.2086561
vt 0.01288483 0.2086561
vt 0.01533351 0.2164816
vt 0.01533351 0.2086561
vt 0.1568794 0.2164816
vt 0.2046132 0.2164816
vt 0.1568794 0.2086561
vt 0.1568794 0.2086561
vt 0.2046132 0.2164816
vt 0.2046132 0.2086561
vt 0.01533351 0.2164816
vt 0.0630673 0.2164816
vt 0.01533351 0.2086561
vt 0.01533351 0.2086561
vt 0.0630673 0.2164816
vt 0.0630673 0.2086561
vt 0.2046132 0.2164816
vt 0.2070619 0.2164816
vt 0.2046132 0.2086561
vt 0.2046132 0.2086561
vt 0.2070619 0.2164816
vt 0.2070619 0.2086561
vt 0.0630673 0.2164816
vt 0.06551599 0.2164816
vt 0.0630673 0.2086561
vt 0.0630673 0.2086561
vt 0.06551599 0.2164816
vt 0.06551599 0.2086561
vt 0.2070619 0.2164816
vt 0.2092384 0.2164816
vt 0.2070619 0.2086561
vt 0.2070619 0.2086561
vt 0.2092384 0.2164816
vt 0.2092384 0.2086561
vt 0.06551599 0.2164816
vt 0.06769249 0.2164816
vt 0.06551599 0.2086561
vt 0.06551599 0.2086561
vt 0.06769249 0.2164816
vt 0.06769249 0.2086561
vt 0.2092384 0.2164816
vt 0.2113746 0.2164816
vt 0.2092384 0.2086561
vt 0.2092384 0.2086561
vt 0.2113746 0.2164816
vt 0.2113746 0.2086561
vt 0.06769249 0.2164816
vt 0.06982873 0.2164816
vt 0.06769249 0.2086561
vt 0.06769249 0.2086561
vt 0.06982873 0.2164816
vt 0.06982873 0.2086561
vt 0.2113746 0.2164816
vt 0.2137145 0.2164816
vt 0.2113746 0.2086561
vt 0.2113746 0.2086561
vt 0.2137145 0.2164816
vt 0.2137145 0.2086561
vt 0.06982873 0.2164816
vt 0.07216862 0.2164816
vt 0.06982873 0.2086561
vt 0.06982873 0.2086561
vt 0.07216862 0.2164816
vt 0.07216862 0.2086561
vt 0.2137145 0.2164816
vt 0.216448 0.2164816
vt 0.2137145 0.2086561
vt 0.2137145 0.2086561
vt 0.216448 0.2164816
vt 0.216448 0.2086561
vt 0.07216862 0.2164816
vt 0.07490211 0.2164816
vt 0.07216862 0.2086561
vt 0.07216862 0.2086561
vt 0.07490211 0.2164816
vt 0.07490211 0.2086561
vt 0.216448 0.2164816
vt 0.2196967 0.2164816
vt 0.216448 0.2086561
vt 0.216448 0.2086561
vt 0.2196967 0.2164816
vt 0.2196967 0.2086561
vt 0.07490211 0.2164816
vt 0.07815082 0.2164816
vt 0.07490211 0.2086561
vt 0.07490211 0.2086561
vt 0.07815082 0.2164816
vt 0.07815082 0.2086561
vt 0.2196967 0.2164816
vt 0.2833418 0.2164816
vt 0.2196967 0.2086561
vt 0.2196967 0.2086561
vt 0.2833418 0.2164816
vt 0.2833418 0.2086561
vt 0.07815082 0.2164816
vt 0.1417959 0.2164816
vt 0.07815082 0.2086561
vt 0.07815082 0.2086561
vt 0.1417959 0.2164816
vt 0.1417959 0.2086561
vt 0.2429001 0.1013542
vt 0.2459894 0.1011436
vt 0.1822376 0.1013542
vt 0.1822376 0.1013542
vt 0.2459894 0.1011436
vt 0.1791483 0.1011436
vt 0.2459894 0.1011436
vt 0.248517 0.1005117
vt 0.1791483 0.1011436
vt 0.1791483 0.1011436
vt 0.248517 0.1005117
vt 0.1766207 0.1005117
vt 0.248517 0.1005117
vt 0.2504829 0.09945849
vt 0.1766207 0.1005117
vt 0.1766207 0.1005117
vt 0.2504829 0.09945849
vt 0.1746548 0.09945849
vt 0.2504829 0.09945849
vt 0.2518871 0.09798406
vt 0.1746548 0.09945849
vt 0.1746548 0.09945849
vt 0.2518871 0.09798406
vt 0.1732505 0.09798406
vt 0.2518871 0.09798406
vt 0.2527297 0.09608835
vt 0.1732505 0.09798406
vt 0.1732505 0.09798406
vt 0.2527297 0.09608835
vt 0.172408 0.09608835
vt 0.2527297 0.09608835
vt 0.2530105 0.09377139
vt 0.172408 0.09608835
vt 0.172408 0.09608835
vt 0.2530105 0.09377139
vt 0.1721271 0.09377139
vt 0.2530105 0.09377139
vt 0.2530105 0.0482745
vt 0.1721271 0.09377139
vt 0.1721271 0.09377139
vt 0.2530105 0.0482745
vt 0.1721271 0.0482745
vt 0.2530105 0.0482745
vt 0.2527297 0.04595753
vt 0.1721271 0.0482745
vt 0.1721271 0.0482745
vt 0.2527297 0.04595753
vt 0.172408 0.04595753
vt 0.2527297 0.04595753
vt 0.2518871 0.04406182
vt 0.172408 0.04595753
vt 0.172408 0.04595753
vt 0.2518871 0.04406182
vt 0.1732505 0.04406182
vt 0.2518871 0.04406182
vt 0.2504829 0.04258739
vt 0.1732505 0.04406182
vt 0.1732505 0.04406182
vt 0.2504829 0.04258739
vt 0.1746548 0.04258739
vt 0.2504829 0.04258739
vt 0.248517 0.04153421
vt 0.1746548 0.04258739
vt 0.1746548 0.04258739
vt 0.248517 0.04153421
vt 0.1766207 0.04153421
vt 0.248517 0.04153421
vt 0.2459894 0.04090231
vt 0.1766207 0.04153421
vt 0.1766207 0.04153421
vt 0.2459894 0.04090231
vt 0.1791483 0.04090231
vt 0.2459894 0.04090231
vt 0.2429001 0.04069168
vt 0.1791483 0.04090231
vt 0.1791483 0.04090231
vt 0.2429001 0.04069168
vt 0.1822376 0.04069168
vt 0.3620131 0.2472664
vt 0.3161008 0.2472664
vt 0.3643513 0.2474258
vt 0.3161008 0.2472664
vt 0.3137627 0.2474258
vt 0.3643513 0.2474258
vt 0.3643513 0.2474258
vt 0.3137627 0.2474258
vt 0.3662643 0.247904
vt 0.3137627 0.2474258
vt 0.3118497 0.247904
vt 0.3662643 0.247904
vt 0.3662643 0.247904
vt 0.3118497 0.247904
vt 0.3677522 0.2487011
vt 0.3118497 0.247904
vt 0.3103618 0.2487011
vt 0.3677522 0.2487011
vt 0.3677522 0.2487011
vt 0.3103618 0.2487011
vt 0.3688149 0.249817
vt 0.3103618 0.2487011
vt 0.309299 0.249817
vt 0.3688149 0.249817
vt 0.3688149 0.249817
vt 0.309299 0.249817
vt 0.3694526 0.2512518
vt 0.309299 0.249817
vt 0.3086613 0.2512518
vt 0.3694526 0.2512518
vt 0.3694526 0.2512518
vt 0.3086613 0.2512518
vt 0.3696652 0.2530054
vt 0.3086613 0.2512518
vt 0.3084488 0.2530054
vt 0.3696652 0.2530054
vt 0.3696652 0.2530054
vt 0.3084488 0.2530054
vt 0.3696652 0.2874396
vt 0.3084488 0.2530054
vt 0.3084488 0.2874396
vt 0.3696652 0.2874396
vt 0.3696652 0.2874396
vt 0.3084488 0.2874396
vt 0.3694526 0.2891932
vt 0.3084488 0.2874396
vt 0.3086613 0.2891932
vt 0.3694526 0.2891932
vt 0.3694526 0.2891932
vt 0.3086613 0.2891932
vt 0.3688149 0.290628
vt 0.3086613 0.2891932
vt 0.309299 0.290628
vt 0.3688149 0.290628
vt 0.3688149 0.290628
vt 0.309299 0.290628
vt 0.3677522 0.2917439
vt 0.309299 0.290628
vt 0.3103618 0.2917439
vt 0.3677522 0.2917439
vt 0.3677522 0.2917439
vt 0.3103618 0.2917439
vt 0.3662643 0.292541
vt 0.3103618 0.2917439
vt 0.3118497 0.292541
vt 0.3662643 0.292541
vt 0.3662643 0.292541
vt 0.3118497 0.292541
vt 0.3643513 0.2930192
vt 0.3118497 0.292541
vt 0.3137627 0.2930192
vt 0.3643513 0.2930192
vt 0.3643513 0.2930192
vt 0.3137627 0.2930192
vt 0.3620131 0.2931786
vt 0.3137627 0.2930192
vt 0.3161008 0.2931786
vt 0.3620131 0.2931786
vt 0.3926213 0.3808609
vt 0.3950801 0.3808609
vt 0.3926213 0.3738415
vt 0.3926213 0.3738415
vt 0.3950801 0.3808609
vt 0.3950801 0.3738415
vt 0.2854927 0.3808609
vt 0.2879514 0.3808609
vt 0.2854927 0.3738415
vt 0.2854927 0.3738415
vt 0.2879514 0.3808609
vt 0.2879514 0.3738415
vt 0.3950801 0.3808609
vt 0.3971489 0.3808609
vt 0.3950801 0.3738415
vt 0.3950801 0.3738415
vt 0.3971489 0.3808609
vt 0.3971489 0.3738415
vt 0.2879514 0.3808609
vt 0.2900203 0.3808609
vt 0.2879514 0.3738415
vt 0.2879514 0.3738415
vt 0.2900203 0.3808609
vt 0.2900203 0.3738415
vt 0.3971489 0.3808609
vt 0.3989199 0.3808609
vt 0.3971489 0.3738415
vt 0.3971489 0.3738415
vt 0.3989199 0.3808609
vt 0.3989199 0.3738415
vt 0.2900203 0.3808609
vt 0.2917912 0.3808609
vt 0.2900203 0.3738415
vt 0.2900203 0.3738415
vt 0.2917912 0.3808609
vt 0.2917912 0.3738415
vt 0.3989199 0.3808609
vt 0.4005367 0.3808609
vt 0.3989199 0.3738415
vt 0.3989199 0.3738415
vt 0.4005367 0.3808609
vt 0.4005367 0.3738415
vt 0.2917912 0.3808609
vt 0.293408 0.3808609
vt 0.2917912 0.3738415
vt 0.2917912 0.3738415
vt 0.293408 0.3808609
vt 0.293408 0.3738415
vt 0.4005367 0.3808609
vt 0.4021839 0.3808609
vt 0.4005367 0.3738415
vt 0.4005367 0.3738415
vt 0.4021839 0.3808609
vt 0.4021839 0.3738415
vt 0.293408 0.3808609
vt 0.2950553 0.3808609
vt 0.293408 0.3738415
vt 0.293408 0.3738415
vt 0.2950553 0.3808609
vt 0.2950553 0.3738415
vt 0.4021839 0.3808609
vt 0.4040372 0.3808609
vt 0.4021839 0.3738415
vt 0.4021839 0.3738415
vt 0.4040372 0.3808609
vt 0.4040372 0.3738415
vt 0.2950553 0.3808609
vt 0.2969086 0.3808609
vt 0.2950553 0.3738415
vt 0.2950553 0.3738415
vt 0.2969086 0.3808609
vt 0.2969086 0.3738415
vt 0.4040372 0.3808609
vt 0.4401644 0.3808609
vt 0.4040372 0.3738415
vt 0.4040372 0.3738415
vt 0.4401644 0.3808609
vt 0.4401644 0.3738415
vt 0.2969086 0.3808609
vt 0.3330358 0.3808609
vt 0.2969086 0.3738415
vt 0.2969086 0.3738415
vt 0.3330358 0.3808609
vt 0.3330358 0.3738415
vt 0.4401644 0.3808609
vt 0.4420177 0.3808609
vt 0.4401644 0.3738415
vt 0.4401644 0.3738415
vt 0.4420177 0.3808609
vt 0.4420177 0.3738415
vt 0.3330358 0.3808609
vt 0.3348891 0.3808609
vt 0.3330358 0.3738415
vt 0.3330358 0.3738415
vt 0.3348891 0.3808609
vt 0.3348891 0.3738415
vt 0.4420177 0.3808609
vt 0.443665 0.3808609
vt 0.4420177 0.3738415
vt 0.4420177 0.3738415
vt 0.443665 0.3808609
vt 0.443665 0.3738415
vt 0.3348891 0.3808609
vt 0.3365363 0.3808609
vt 0.3348891 0.3738415
vt 0.3348891 0.3738415
vt 0.3365363 0.3808609
vt 0.3365363 0.3738415
vt 0.443665 0.3808609
vt 0.4452818 0.3808609
vt 0.443665 0.3738415
vt 0.443665 0.3738415
vt 0.4452818 0.3808609
vt 0.4452818 0.3738415
vt 0.3365363 0.3808609
vt 0.3381531 0.3808609
vt 0.3365363 0.3738415
vt 0.3365363 0.3738415
vt 0.3381531 0.3808609
vt 0.3381531 0.3738415
vt 0.4452818 0.3808609
vt 0.4470527 0.3808609
vt 0.4452818 0.3738415
vt 0.4452818 0.3738415
vt 0.4470527 0.3808609
vt 0.4470527 0.3738415
vt 0.3381531 0.3808609
vt 0.3399241 0.3808609
vt 0.3381531 0.3738415
vt 0.3381531 0.3738415
vt 0.3399241 0.3808609
vt 0.3399241 0.3738415
vt 0.4470527 0.3808609
vt 0.4491216 0.3808609
vt 0.4470527 0.3738415
vt 0.4470527 0.3738415
vt 0.4491216 0.3808609
vt 0.4491216 0.3738415
vt 0.3399241 0.3808609
vt 0.3419929 0.3808609
vt 0.3399241 0.3738415
vt 0.3399241 0.3738415
vt 0.3419929 0.3808609
vt 0.3419929 0.3738415
vt 0.4491216 0.3808609
vt 0.4515804 0.3808609
vt 0.4491216 0.3738415
vt 0.4491216 0.3738415
vt 0.4515804 0.3808609
vt 0.4515804 0.3738415
vt 0.3419929 0.3808609
vt 0.3444517 0.3808609
vt 0.3419929 0.3738415
vt 0.3419929 0.3738415
vt 0.3444517 0.3808609
vt 0.3444517 0.3738415
vt 0.4515804 0.3808609
vt 0.49975 0.3808609
vt 0.4515804 0.3738415
vt 0.4515804 0.3738415
vt 0.49975 0.3808609
vt 0.49975 0.3738415
vt 0.3444517 0.3808609
vt 0.3926213 0.3808609
vt 0.3444517 0.3738415
vt 0.3444517 0.3738415
vt 0.3926213 0.3808609
vt 0.3926213 0.3738415
vt 0.4691418 0.2931786
vt 0.4714799 0.2930192
vt 0.4232295 0.2931786
vt 0.4232295 0.2931786
vt 0.4714799 0.2930192
vt 0.4208914 0.2930192
vt 0.4714799 0.2930192
vt 0.4733929 0.292541
vt 0.4208914 0.2930192
vt 0.4208914 0.2930192
vt 0.4733929 0.292541
vt 0.4189784 0.292541
vt 0.4733929 0.292541
vt 0.4748808 0.2917439
vt 0.4189784 0.292541
vt 0.4189784 0.292541
vt 0.4748808 0.2917439
vt 0.4174905 0.2917439
vt 0.4748808 0.2917439
vt 0.4759436 0.290628
vt 0.4174905 0.2917439
vt 0.4174905 0.2917439
vt 0.4759436 0.290628
vt 0.4164277 0.290628
vt 0.4759436 0.290628
vt 0.4765813 0.2891932
vt 0.4164277 0.290628
vt 0.4164277 0.290628
vt 0.4765813 0.2891932
vt 0.41579 0.2891932
vt 0.4765813 0.2891932
vt 0.4767938 0.2874396
vt 0.41579 0.2891932
vt 0.41579 0.2891932
vt 0.4767938 0.2874396
vt 0.4155775 0.2874396
vt 0.4767938 0.2874396
vt 0.4767938 0.2530054
vt 0.4155775 0.2874396
vt 0.4155775 0.2874396
vt 0.4767938 0.2530054
vt 0.4155775 0.2530054
vt 0.4767938 0.2530054
vt 0.4765813 0.2512518
vt 0.4155775 0.2530054
vt 0.4155775 0.2530054
vt 0.4765813 0.2512518
vt 0.41579 0.2512518
vt 0.4765813 0.2512518
vt 0.4759436 0.249817
vt 0.41579 0.2512518
vt 0.41579 0.2512518
vt 0.4759436 0.249817
vt 0.4164277 0.249817
vt 0.4759436 0.249817
vt 0.4748808 0.2487011
vt 0.4164277 0.249817
vt 0.4164277 0.249817
vt 0.4748808 0.2487011
vt 0.4174905 0.2487011
vt 0.4748808 0.2487011
vt 0.4733929 0.247904
vt 0.4174905 0.2487011
vt 0.4174905 0.2487011
vt 0.4733929 0.247904
vt 0.4189784 0.247904
vt 0.4733929 0.247904
vt 0.4714799 0.2474258
vt 0.4189784 0.247904
vt 0.4189784 0.247904
vt 0.4714799 0.2474258
vt 0.4208914 0.2474258
vt 0.4714799 0.2474258
vt 0.4691418 0.2472664
vt 0.4208914 0.2474258
vt 0.4208914 0.2474258
vt 0.4691418 0.2472664
vt 0.4232295 0.2472664
vt 0.185043 0.3409559
vt 0.185043 0.2838418
vt 0.1422074 0.3409559
vt 0.185043 0.2838418
vt 0.1422074 0.2838418
vt 0.1422074 0.3409559
vt 0.1422074 0.390074
vt 0.1422074 0.4471881
vt 0.185043 0.390074
vt 0.1422074 0.4471881
vt 0.185043 0.4471881
vt 0.185043 0.390074
vt 0.1422074 0.3409559
vt 0.08509337 0.3409559
vt 0.1422074 0.390074
vt 0.08509337 0.3409559
vt 0.08509337 0.390074
vt 0.1422074 0.390074
vt 0.2421571 0.3409559
vt 0.185043 0.3409559
vt 0.2421571 0.390074
vt 0.185043 0.3409559
vt 0.185043 0.390074
vt 0.2421571 0.390074
vt 0.185043 0.3409559
vt 0.1422074 0.3409559
vt 0.185043 0.390074
vt 0.1422074 0.3409559
vt 0.1422074 0.390074
vt 0.185043 0.390074
vt 0.2849926 0.3409559
vt 0.2421571 0.3409559
vt 0.2849926 0.390074
vt 0.2421571 0.3409559
vt 0.2421571 0.390074
vt 0.2849926 0.390074
vt 0.3609519 0.03109402
vt 0.3146859 0.03109402
vt 0.363308 0.03125467
vt 0.3146859 0.03109402
vt 0.3123297 0.03125467
vt 0.363308 0.03125467
vt 0.363308 0.03125467
vt 0.3123297 0.03125467
vt 0.3652358 0.0317366
vt 0.3123297 0.03125467
vt 0.3104019 0.0317366
vt 0.3652358 0.0317366
vt 0.3652358 0.0317366
vt 0.3104019 0.0317366
vt 0.3667351 0.03253984
vt 0.3104019 0.0317366
vt 0.3089026 0.03253984
vt 0.3667351 0.03253984
vt 0.3667351 0.03253984
vt 0.3089026 0.03253984
vt 0.3678061 0.03366436
vt 0.3089026 0.03253984
vt 0.3078316 0.03366436
vt 0.3678061 0.03366436
vt 0.3678061 0.03366436
vt 0.3078316 0.03366436
vt 0.3684487 0.03511017
vt 0.3078316 0.03366436
vt 0.307189 0.03511017
vt 0.3684487 0.03511017
vt 0.3684487 0.03511017
vt 0.307189 0.03511017
vt 0.3686629 0.03687728
vt 0.307189 0.03511017
vt 0.3069748 0.03687728
vt 0.3686629 0.03687728
vt 0.3686629 0.03687728
vt 0.3069748 0.03687728
vt 0.3686629 0.0715768
vt 0.3069748 0.03687728
vt 0.3069748 0.0715768
vt 0.3686629 0.0715768
vt 0.3686629 0.0715768
vt 0.3069748 0.0715768
vt 0.3684487 0.0733439
vt 0.3069748 0.0715768
vt 0.307189 0.0733439
vt 0.3684487 0.0733439
vt 0.3684487 0.0733439
vt 0.307189 0.0733439
vt 0.3678061 0.07478972
vt 0.307189 0.0733439
vt 0.3078316 0.07478972
vt 0.3678061 0.07478972
vt 0.3678061 0.07478972
vt 0.3078316 0.07478972
vt 0.3667351 0.07591424
vt 0.3078316 0.07478972
vt 0.3089026 0.07591424
vt 0.3667351 0.07591424
vt 0.3667351 0.07591424
vt 0.3089026 0.07591424
vt 0.3652358 0.07671747
vt 0.3089026 0.07591424
vt 0.3104019 0.07671747
vt 0.3652358 0.07671747
vt 0.3652358 0.07671747
vt 0.3104019 0.07671747
vt 0.363308 0.07719941
vt 0.3104019 0.07671747
vt 0.3123297 0.07719941
vt 0.363308 0.07719941
vt 0.363308 0.07719941
vt 0.3123297 0.07719941
vt 0.3609519 0.07736006
vt 0.3123297 0.07719941
vt 0.3146859 0.07736006
vt 0.3609519 0.07736006
vt 0.3917959 0.16616
vt 0.3942736 0.16616
vt 0.3917959 0.1582022
vt 0.3917959 0.1582022
vt 0.3942736 0.16616
vt 0.3942736 0.1582022
vt 0.2838418 0.16616
vt 0.2863196 0.16616
vt 0.2838418 0.1582022
vt 0.2838418 0.1582022
vt 0.2863196 0.16616
vt 0.2863196 0.1582022
vt 0.3942736 0.16616
vt 0.3963584 0.16616
vt 0.3942736 0.1582022
vt 0.3942736 0.1582022
vt 0.3963584 0.16616
vt 0.3963584 0.1582022
vt 0.2863196 0.16616
vt 0.2884043 0.16616
vt 0.2863196 0.1582022
vt 0.2863196 0.1582022
vt 0.2884043 0.16616
vt 0.2884043 0.1582022
vt 0.3963584 0.16616
vt 0.398143 0.16616
vt 0.3963584 0.1582022
vt 0.3963584 0.1582022
vt 0.398143 0.16616
vt 0.398143 0.1582022
vt 0.2884043 0.16616
vt 0.2901889 0.16616
vt 0.2884043 0.1582022
vt 0.2884043 0.1582022
vt 0.2901889 0.16616
vt 0.2901889 0.1582022
vt 0.398143 0.16616
vt 0.3997723 0.16616
vt 0.398143 0.1582022
vt 0.398143 0.1582022
vt 0.3997723 0.16616
vt 0.3997723 0.1582022
vt 0.2901889 0.16616
vt 0.2918182 0.16616
vt 0.2901889 0.1582022
vt 0.2901889 0.1582022
vt 0.2918182 0.16616
vt 0.2918182 0.1582022
vt 0.3997723 0.16616
vt 0.4014322 0.16616
vt 0.3997723 0.1582022
vt 0.3997723 0.1582022
vt 0.4014322 0.16616
vt 0.4014322 0.1582022
vt 0.2918182 0.16616
vt 0.2934781 0.16616
vt 0.2918182 0.1582022
vt 0.2918182 0.1582022
vt 0.2934781 0.16616
vt 0.2934781 0.1582022
vt 0.4014322 0.16616
vt 0.4032998 0.16616
vt 0.4014322 0.1582022
vt 0.4014322 0.1582022
vt 0.4032998 0.16616
vt 0.4032998 0.1582022
vt 0.2934781 0.16616
vt 0.2953457 0.16616
vt 0.2934781 0.1582022
vt 0.2934781 0.1582022
vt 0.2953457 0.16616
vt 0.2953457 0.1582022
vt 0.4032998 0.16616
vt 0.4397053 0.16616
vt 0.4032998 0.1582022
vt 0.4032998 0.1582022
vt 0.4397053 0.16616
vt 0.4397053 0.1582022
vt 0.2953457 0.16616
vt 0.3317513 0.16616
vt 0.2953457 0.1582022
vt 0.2953457 0.1582022
vt 0.3317513 0.16616
vt 0.3317513 0.1582022
vt 0.4397053 0.16616
vt 0.4415729 0.16616
vt 0.4397053 0.1582022
vt 0.4397053 0.1582022
vt 0.4415729 0.16616
vt 0.4415729 0.1582022
vt 0.3317513 0.16616
vt 0.3336188 0.16616
vt 0.3317513 0.1582022
vt 0.3317513 0.1582022
vt 0.3336188 0.16616
vt 0.3336188 0.1582022
vt 0.4415729 0.16616
vt 0.4432329 0.16616
vt 0.4415729 0.1582022
vt 0.4415729 0.1582022
vt 0.4432329 0.16616
vt 0.4432329 0.1582022
vt 0.3336188 0.16616
vt 0.3352788 0.16616
vt 0.3336188 0.1582022
vt 0.3336188 0.1582022
vt 0.3352788 0.16616
vt 0.3352788 0.1582022
vt 0.4432329 0.16616
vt 0.4448621 0.16616
vt 0.4432329 0.1582022
vt 0.4432329 0.1582022
vt 0.4448621 0.16616
vt 0.4448621 0.1582022
vt 0.3352788 0.16616
vt 0.336908 0.16616
vt 0.3352788 0.1582022
vt 0.3352788 0.1582022
vt 0.336908 0.16616
vt 0.336908 0.1582022
vt 0.4448621 0.16616
vt 0.4466467 0.16616
vt 0.4448621 0.1582022
vt 0.4448621 0.1582022
vt 0.4466467 0.16616
vt 0.4466467 0.1582022
vt 0.336908 0.16616
vt 0.3386926 0.16616
vt 0.336908 0.1582022
vt 0.336908 0.1582022
vt 0.3386926 0.16616
vt 0.3386926 0.1582022
vt 0.4466467 0.16616
vt 0.4487315 0.16616
vt 0.4466467 0.1582022
vt 0.4466467 0.1582022
vt 0.4487315 0.16616
vt 0.4487315 0.1582022
vt 0.3386926 0.16616
vt 0.3407774 0.16616
vt 0.3386926 0.1582022
vt 0.3386926 0.1582022
vt 0.3407774 0.16616
vt 0.3407774 0.1582022
vt 0.4487315 0.16616
vt 0.4512092 0.16616
vt 0.4487315 0.1582022
vt 0.4487315 0.1582022
vt 0.4512092 0.16616
vt 0.4512092 0.1582022
vt 0.3407774 0.16616
vt 0.3432551 0.16616
vt 0.3407774 0.1582022
vt 0.3407774 0.1582022
vt 0.3432551 0.16616
vt 0.3432551 0.1582022
vt 0.4512092 0.16616
vt 0.49975 0.16616
vt 0.4512092 0.1582022
vt 0.4512092 0.1582022
vt 0.49975 0.16616
vt 0.49975 0.1582022
vt 0.3432551 0.16616
vt 0.3917959 0.16616
vt 0.3432551 0.1582022
vt 0.3432551 0.1582022
vt 0.3917959 0.16616
vt 0.3917959 0.1582022
vt 0.468906 0.07736006
vt 0.4712621 0.07719941
vt 0.4226399 0.07736006
vt 0.4226399 0.07736006
vt 0.4712621 0.07719941
vt 0.4202838 0.07719941
vt 0.4712621 0.07719941
vt 0.4731899 0.07671747
vt 0.4202838 0.07719941
vt 0.4202838 0.07719941
vt 0.4731899 0.07671747
vt 0.418356 0.07671747
vt 0.4731899 0.07671747
vt 0.4746892 0.07591424
vt 0.418356 0.07671747
vt 0.418356 0.07671747
vt 0.4746892 0.07591424
vt 0.4168566 0.07591424
vt 0.4746892 0.07591424
vt 0.4757602 0.07478972
vt 0.4168566 0.07591424
vt 0.4168566 0.07591424
vt 0.4757602 0.07478972
vt 0.4157857 0.07478972
vt 0.4757602 0.07478972
vt 0.4764028 0.0733439
vt 0.4157857 0.07478972
vt 0.4157857 0.07478972
vt 0.4764028 0.0733439
vt 0.4151431 0.0733439
vt 0.4764028 0.0733439
vt 0.476617 0.0715768
vt 0.4151431 0.0733439
vt 0.4151431 0.0733439
vt 0.476617 0.0715768
vt 0.4149289 0.0715768
vt 0.476617 0.0715768
vt 0.476617 0.03687728
vt 0.4149289 0.0715768
vt 0.4149289 0.0715768
vt 0.476617 0.03687728
vt 0.4149289 0.03687728
vt 0.476617 0.03687728
vt 0.4764028 0.03511017
vt 0.4149289 0.03687728
vt 0.4149289 0.03687728
vt 0.4764028 0.03511017
vt 0.4151431 0.03511017
vt 0.4764028 0.03511017
vt 0.4757602 0.03366436
vt 0.4151431 0.03511017
vt 0.4151431 0.03511017
vt 0.4757602 0.03366436
vt 0.4157857 0.03366436
vt 0.4757602 0.03366436
vt 0.4746892 0.03253984
vt 0.4157857 0.03366436
vt 0.4157857 0.03366436
vt 0.4746892 0.03253984
vt 0.4168566 0.03253984
vt 0.4746892 0.03253984
vt 0.4731899 0.0317366
vt 0.4168566 0.03253984
vt 0.4168566 0.03253984
vt 0.4731899 0.0317366
vt 0.418356 0.0317366
vt 0.4731899 0.0317366
vt 0.4712621 0.03125467
vt 0.418356 0.0317366
vt 0.418356 0.0317366
vt 0.4712621 0.03125467
vt 0.4202838 0.03125467
vt 0.4712621 0.03125467
vt 0.468906 0.03109402
vt 0.4202838 0.03125467
vt 0.4202838 0.03125467
vt 0.468906 0.03109402
vt 0.4226399 0.03109402
f 3/3/3 2/2/2 1/1/1
f 6/6/6 5/5/5 4/4/4
f 9/9/9 8/8/8 7/7/7
f 12/12/12 11/11/11 10/10/10
f 15/15/15 14/14/14 13/13/13
f 18/18/18 17/17/17 16/16/16
f 21/21/21 20/20/20 19/19/19
f 24/24/24 23/23/23 22/22/22
f 27/27/27 26/26/26 25/25/25
f 30/30/30 29/29/29 28/28/28
f 33/33/33 32/32/32 31/31/31
f 36/36/36 35/35/35 34/34/34
f 39/39/39 38/38/38 37/37/37
f 42/42/42 41/41/41 40/40/40
f 45/45/45 44/44/44 43/43/43
f 48/48/48 47/47/47 46/46/46
f 51/51/51 50/50/50 49/49/49
f 54/54/54 53/53/53 52/52/52
f 57/57/57 56/56/56 55/55/55
f 60/60/60 59/59/59 58/58/58
f 63/63/63 62/62/62 61/61/61
f 66/66/66 65/65/65 64/64/64
f 69/69/69 68/68/68 67/67/67
f 72/72/72 71/71/71 70/70/70
f 75/75/75 74/74/74 73/73/73
f 78/78/78 77/77/77 76/76/76
f 81/81/81 80/80/80 79/79/79
f 84/84/84 83/83/83 82/82/82
f 87/87/87 86/86/86 85/85/85
f 90/90/90 89/89/89 88/88/88
f 93/93/93 92/92/92 91/91/91
f 96/96/96 95/95/95 94/94/94
f 99/99/99 98/98/98 97/97/97
f 102/102/102 101/101/101 100/100/100
f 105/105/105 104/104/104 103/103/103
f 108/108/108 107/107/107 106/106/106
f 111/111/111 110/110/110 109/109/109
f 114/114/114 113/113/113 112/112/112
f 117/117/117 116/116/116 115/115/115
f 120/120/120 119/119/119 118/118/118
f 123/123/123 122/122/122 121/121/121
f 126/126/126 125/125/125 124/124/124
f 129/129/129 128/128/128 127/127/127
f 132/132/132 131/131/131 130/130/130
f 135/135/135 134/134/134 133/133/133
f 138/138/138 137/137/137 136/136/136
f 141/141/141 140/140/140 139/139/139
f 144/144/144 143/143/143 142/142/142
f 147/147/147 146/146/146 145/145/145
f 150/150/150 149/149/149 148/148/148
f 153/153/153 152/152/152 151/151/151
f 156/156/156 155/155/155 154/154/154
f 159/159/159 158/158/158 157/157/157
f 162/162/162 161/161/161 160/160/160
f 165/165/165 164/164/164 163/163/163
f 168/168/168 167/167/167 166/166/166
f 171/171/171 170/170/170 169/169/169
f 174/174/174 173/173/173 172/172/172
f 177/177/177 176/176/176 175/175/175
f 180/180/180 179/179/179 178/178/178
f 183/183/183 182/182/182 181/181/181
f 186/186/186 185/185/185 184/184/184
f 189/189/189 188/188/188 187/187/187
f 192/192/192 191/191/191 190/190/190
f 195/195/195 194/194/194 193/193/193
f 198/198/198 197/197/197 196/196/196
f 201/201/201 200/200/200 199/199/199
f 204/204/204 203/203/203 202/202/202
f 207/207/207 206/206/206 205/205/205
f 210/210/210 209/209/209 208/208/208
f 213/213/213 212/212/212 211/211/211
f 216/216/216 215/215/215 214/214/214
f 219/219/219 218/218/218 217/217/217
f 222/222/222 221/221/221 220/220/220
f 225/225/225 224/224/224 223/223/223
f 228/228/228 227/227/227 226/226/226
f 231/231/231 230/230/230 229/229/229
f 234/234/234 233/233/233 232/232/232
f 237/237/237 236/236/236 235/235/235
f 240/240/240 239/239/239 238/238/238
f 243/243/243 242/242/242 241/241/241
f 246/246/246 245/245/245 244/244/244
f 249/249/249 248/248/248 247/247/247
f 252/252/252 251/251/251 250/250/250
f 255/255/255 254/254/254 253/253/253
f 258/258/258 257/257/257 256/256/256
f 261/261/261 260/260/260 259/259/259
f 264/264/264 263/263/263 262/262/262
f 267/267/267 266/266/266 265/265/265
f 270/270/270 269/269/269 268/268/268
f 273/273/273 272/272/272 271/271/271
f 276/276/276 275/275/275 274/274/274
f 279/279/279 278/278/278 277/277/277
f 282/282/282 281/281/281 280/280/280
f 285/285/285 284/284/284 283/283/283
f 288/288/288 287/287/287 286/286/286
f 291/291/291 290/290/290 289/289/289
f 294/294/294 293/293/293 292/292/292
f 297/297/297 296/296/296 295/295/295
f 300/300/300 299/299/299 298/298/298
f 303/303/303 302/302/302 301/301/301
f 306/306/306 305/305/305 304/304/304
f 309/309/309 308/308/308 307/307/307
f 312/312/312 311/311/311 310/310/310
f 315/315/315 314/314/314 313/313/313
f 318/318/318 317/317/317 316/316/316
f 321/321/321 320/320/320 319/319/319
f 324/324/324 323/323/323 322/322/322
f 327/327/327 326/326/326 325/325/325
f 330/330/330 329/329/329 328/328/328
f 333/333/333 332/332/332 331/331/331
f 336/336/336 335/335/335 334/334/334
f 339/339/339 338/338/338 337/337/337
f 342/342/342 341/341/341 340/340/340
f 345/345/345 344/344/344 343/343/343
f 348/348/348 347/347/347 346/346/346
f 351/351/351 350/350/350 349/349/349
f 354/354/354 353/353/353 352/352/352
f 357/357/357 356/356/356 355/355/355
f 360/360/360 359/359/359 358/358/358
f 363/363/363 362/362/362 361/361/361
f 366/366/366 365/365/365 364/364/364
f 369/369/369 368/368/368 367/367/367
f 372/372/372 371/371/371 370/370/370
f 375/375/375 374/374/374 373/373/373
f 378/378/378 377/377/377 376/376/376
f 381/381/381 380/380/380 379/379/379
f 384/384/384 383/383/383 382/382/382
f 387/387/387 386/386/386 385/385/385
f 390/390/390 389/389/389 388/388/388
f 393/393/393 392/392/392 391/391/391
f 396/396/396 395/395/395 394/394/394
f 399/399/399 398/398/398 397/397/397
f 402/402/402 401/401/401 400/400/400
f 405/405/405 404/404/404 403/403/403
f 408/408/408 407/407/407 406/406/406
f 411/411/411 410/410/410 409/409/409
f 414/414/414 413/413/413 412/412/412
f 417/417/417 416/416/416 415/415/415
f 420/420/420 419/419/419 418/418/418
f 423/423/423 422/422/422 421/421/421
f 426/426/426 425/425/425 424/424/424
f 429/429/429 428/428/428 427/427/427
f 432/432/432 431/431/431 430/430/430
f 435/435/435 434/434/434 433/433/433
f 438/438/438 437/437/437 436/436/436
f 441/441/441 440/440/440 439/439/439
f 444/444/444 443/443/443 442/442/442
f 447/447/447 446/446/446 445/445/445
f 450/450/450 449/449/449 448/448/448
f 453/453/453 452/452/452 451/451/451
f 456/456/456 455/455/455 454/454/454
f 459/459/459 458/458/458 457/457/457
f 462/462/462 461/461/461 460/460/460
f 465/465/465 464/464/464 463/463/463
f 468/468/468 467/467/467 466/466/466
f 471/471/471 470/470/470 469/469/469
f 474/474/474 473/473/473 472/472/472
f 477/477/477 476/476/476 475/475/475
f 480/480/480 479/479/479 478/478/478
f 483/483/483 482/482/482 481/481/481
f 486/486/486 485/485/485 484/484/484
f 489/489/489 488/488/488 487/487/487
f 492/492/492 491/491/491 490/490/490
f 495/495/495 494/494/494 493/493/493
f 498/498/498 497/497/497 496/496/496
f 501/501/501 500/500/500 499/499/499
f 504/504/504 503/503/503 502/502/502
f 507/507/507 506/506/506 505/505/505
f 510/510/510 509/509/509 508/508/508
f 513/513/513 512/512/512 511/511/511
f 516/516/516 515/515/515 514/514/514
f 519/519/519 518/518/518 517/517/517
f 522/522/522 521/521/521 520/520/520
f 525/525/525 524/524/524 523/523/523
f 528/528/528 527/527/527 526/526/526
f 531/531/531 530/530/530 529/529/529
f 534/534/534 533/533/533 532/532/532
f 537/537/537 536/536/536 535/535/535
f 540/540/540 539/539/539 538/538/538
f 543/543/543 542/542/542 541/541/541
f 546/546/546 545/545/545 544/544/544
f 549/549/549 548/548/548 547/547/547
f 552/552/552 551/551/551 550/550/550
f 555/555/555 554/554/554 553/553/553
f 558/558/558 557/557/557 556/556/556
f 561/561/561 560/560/560 559/559/559
f 564/564/564 563/563/563 562/562/562
f 567/567/567 566/566/566 565/565/565
f 570/570/570 569/569/569 568/568/568
f 573/573/573 572/572/572 571/571/571
f 576/576/576 575/575/575 574/574/574
f 579/579/579 578/578/578 577/577/577
f 582/582/582 581/581/581 580/580/580
f 585/585/585 584/584/584 583/583/583
f 588/588/588 587/587/587 586/586/586
f 591/591/591 590/590/590 589/589/589
f 594/594/594 593/593/593 592/592/592
f 597/597/597 596/596/596 595/595/595
f 600/600/600 599/599/599 598/598/598
f 603/603/603 602/602/602 601/601/601
f 606/606/606 605/605/605 604/604/604
f 609/609/609 608/608/608 607/607/607
f 612/612/612 611/611/611 610/610/610
f 615/615/615 614/614/614 613/613/613
f 618/618/618 617/617/617 616/616/616
f 621/621/621 620/620/620 619/619/619
f 624/624/624 623/623/623 622/622/622
f 627/627/627 626/626/626 625/625/625
f 630/630/630 629/629/629 628/628/628
f 633/633/633 632/632/632 631/631/631
f 636/636/636 635/635/635 634/634/634
f 639/639/639 638/638/638 637/637/637
f 642/642/642 641/641/641 640/640/640
f 645/645/645 644/644/644 643/643/643
f 648/648/648 647/647/647 646/646/646
f 651/651/651 650/650/650 649/649/649
f 654/654/654 653/653/653 652/652/652
f 657/657/657 656/656/656 655/655/655
f 660/660/660 659/659/659 658/658/658
f 663/663/663 662/662/662 661/661/661
f 666/666/666 665/665/665 664/664/664
f 669/669/669 668/668/668 667/667/667
f 672/672/672 671/671/671 670/670/670
f 675/675/675 674/674/674 673/673/673
f 678/678/678 677/677/677 676/676/676
f 681/681/681 680/680/680 679/679/679
f 684/684/684 683/683/683 682/682/682
f 687/687/687 686/686/686 685/685/685
f 690/690/690 689/689/689 688/688/688
f 693/693/693 692/692/692 691/691/691
f 696/696/696 695/695/695 694/694/694
f 699/699/699 698/698/698 697/697/697
f 702/702/702 701/701/701 700/700/700
f 705/705/705 704/704/704 703/703/703
f 708/708/708 707/707/707 706/706/706
f 711/711/711 710/710/710 709/709/709
f 714/714/714 713/713/713 712/712/712
f 717/717/717 716/716/716 715/715/715
f 720/720/720 719/719/719 718/718/718
f 723/723/723 722/722/722 721/721/721
f 726/726/726 725/725/725 724/724/724
f 729/729/729 728/728/728 727/727/727
f 732/732/732 731/731/731 730/730/730
f 735/735/735 734/734/734 733/733/733
f 738/738/738 737/737/737 736/736/736
f 741/741/741 740/740/740 739/739/739
f 744/744/744 743/743/743 742/742/742
f 747/747/747 746/746/746 745/745/745
f 750/750/750 749/749/749 748/748/748
f 753/753/753 752/752/752 751/751/751
f 756/756/756 755/755/755 754/754/754
f 759/759/759 758/758/758 757/757/757
f 762/762/762 761/761/761 760/760/760
f 765/765/765 764/764/764 763/763/763
f 768/768/768 767/767/767 766/766/766
f 771/771/771 770/770/770 769/769/769
f 774/774/774 773/773/773 772/772/772
f 777/777/777 776/776/776 775/775/775
f 780/780/780 779/779/779 778/778/778
f 783/783/783 782/782/782 781/781/781
f 786/786/786 785/785/785 784/784/784
f 789/789/789 788/788/788 787/787/787
f 792/792/792 791/791/791 790/790/790
f 795/795/795 794/794/794 793/793/793
f 798/798/798 797/797/797 796/796/796
f 801/801/801 800/800/800 799/799/799
f 804/804/804 803/803/803 802/802/802
f 807/807/807 806/806/806 805/805/805
f 810/810/810 809/809/809 808/808/808
f 813/813/813 812/812/812 811/811/811
f 816/816/816 815/815/815 814/814/814
f 819/819/819 818/818/818 817/817/817
f 822/822/822 821/821/821 820/820/820
f 825/825/825 824/824/824 823/823/823
f 828/828/828 827/827/827 826/826/826
f 831/831/831 830/830/830 829/829/829
f 834/834/834 833/833/833 832/832/832
f 837/837/837 836/836/836 835/835/835
f 840/840/840 839/839/839 838/838/838
f 843/843/843 842/842/842 841/841/841
f 846/846/846 845/845/845 844/844/844
f 849/849/849 848/848/848 847/847/847
f 852/852/852 851/851/851 850/850/850
f 855/855/855 854/854/854 853/853/853
f 858/858/858 857/857/857 856/856/856
f 861/861/861 860/860/860 859/859/859
f 864/864/864 863/863/863 862/862/862
f 867/867/867 866/866/866 865/865/865
f 870/870/870 869/869/869 868/868/868
f 873/873/873 872/872/872 871/871/871
f 876/876/876 875/875/875 874/874/874
f 879/879/879 878/878/878 877/877/877
f 882/882/882 881/881/881 880/880/880
f 885/885/885 884/884/884 883/883/883
f 888/888/888 887/887/887 886/886/886
f 891/891/891 890/890/890 889/889/889
f 894/894/894 893/893/893 892/892/892
f 897/897/897 896/896/896 895/895/895
f 900/900/900 899/899/899 898/898/898
f 903/903/903 902/902/902 901/901/901
f 906/906/906 905/905/905 904/904/904
f 909/909/909 908/908/908 907/907/907
f 912/912/912 911/911/911 910/910/910
f 915/915/915 914/914/914 913/913/913
f 918/918/918 917/917/917 916/916/916
f 921/921/921 920/920/920 919/919/919
f 924/924/924 923/923/923 922/922/922
f 927/927/927 926/926/926 925/925/925
f 930/930/930 929/929/929 928/928/928
f 933/933/933 932/932/932 931/931/931
f 936/936/936 935/935/935 934/934/934
f 939/939/939 938/938/938 937/937/937
f 942/942/942 941/941/941 940/940/940
f 945/945/945 944/944/944 943/943/943
f 948/948/948 947/947/947 946/946/946
f 951/951/951 950/950/950 949/949/949
f 954/954/954 953/953/953 952/952/952
f 957/957/957 956/956/956 955/955/955
f 960/960/960 959/959/959 958/958/958
f 963/963/963 962/962/962 961/961/961
f 966/966/966 965/965/965 964/964/964
f 969/969/969 968/968/968 967/967/967
f 972/972/972 971/971/971 970/970/970
f 975/975/975 974/974/974 973/973/973
f 978/978/978 977/977/977 976/976/976
f 981/981/981 980/980/980 979/979/979
f 984/984/984 983/983/983 982/982/982
f 987/987/987 986/986/986 985/985/985
f 990/990/990 989/989/989 988/988/988
f 993/993/993 992/992/992 991/991/991
f 996/996/996 995/995/995 994/994/994
f 999/999/999 998/998/998 997/997/997
f 1002/1002/1002 1001/1001/1001 1000/1000/1000
f 1005/1005/1005 1004/1004/1004 1003/1003/1003
f 1008/1008/1008 1007/1007/1007 1006/1006/1006
